<?xml version="1.0" encoding="UTF-8" standalone="no"?>
<!-- Created with Inkscape (http://www.inkscape.org/) -->
<svg
   xmlns:dc="http://purl.org/dc/elements/1.1/"
   xmlns:cc="http://web.resource.org/cc/"
   xmlns:rdf="http://www.w3.org/1999/02/22-rdf-syntax-ns#"
   xmlns:svg="http://www.w3.org/2000/svg"
   xmlns="http://www.w3.org/2000/svg"
   xmlns:xlink="http://www.w3.org/1999/xlink"
   xmlns:sodipodi="http://sodipodi.sourceforge.net/DTD/sodipodi-0.dtd"
   xmlns:inkscape="http://www.inkscape.org/namespaces/inkscape"
   width="233.33264"
   height="284.43176"
   id="svg2"
   sodipodi:version="0.32"
   inkscape:version="0.45.1"
   sodipodi:docbase="/home/pd218234/java/Slides"
   sodipodi:docname="tortue.svg"
   inkscape:output_extension="org.inkscape.output.svg.inkscape"
   version="1.0">
  <defs
     id="defs4">
    <use
       style="fill:currentColor;stroke:none"
       id="gpPt12"
       xlink:href="#gpPt11"
       x="0"
       y="0"
       width="744.09448"
       height="1052.3622" />
    <use
       transform="matrix(0.7071068,0.7071068,-0.7071068,0.7071068,0,0)"
       id="gpPt11"
       xlink:href="#gpPt3"
       x="0"
       y="0"
       width="744.09448"
       height="1052.3622" />
    <use
       style="fill:currentColor;stroke:none"
       id="gpPt10"
       xlink:href="#gpPt9"
       x="0"
       y="0"
       width="744.09448"
       height="1052.3622" />
    <use
       transform="scale(-1,-1)"
       id="gpPt9"
       xlink:href="#gpPt7"
       x="0"
       y="0"
       width="744.09448"
       height="1052.3622" />
    <use
       style="fill:currentColor;stroke:none"
       id="gpPt8"
       xlink:href="#gpPt7"
       x="0"
       y="0"
       width="744.09448"
       height="1052.3622" />
    <path
       d="M 0,-1.33 L -1.33,0.67 L 1.33,0.67 L 0,-1.33 z "
       style="stroke-width:0.074"
       id="gpPt7" />
    <use
       style="fill:currentColor;stroke:none"
       id="gpPt6"
       xlink:href="#gpPt5"
       x="0"
       y="0"
       width="744.09448"
       height="1052.3622" />
    <circle
       r="1"
       cy="0"
       cx="0"
       style="stroke-width:0.074"
       id="gpPt5"
       sodipodi:cx="0"
       sodipodi:cy="0"
       sodipodi:rx="1"
       sodipodi:ry="1" />
    <use
       style="fill:currentColor;stroke:none"
       id="gpPt4"
       xlink:href="#gpPt3"
       x="0"
       y="0"
       width="744.09448"
       height="1052.3622" />
    <rect
       height="2"
       width="2"
       y="-1"
       x="-1"
       style="stroke-width:0.074"
       id="gpPt3" />
    <path
       d="M -1,0 L 1,0 M 0,-1 L 0,1 M -1,-1 L 1,1 M -1,1 L 1,-1"
       style="stroke-width:0.074"
       id="gpPt2" />
    <path
       d="M -1,-1 L 1,1 M 1,-1 L -1,1"
       style="stroke-width:0.074"
       id="gpPt1" />
    <path
       d="M -1,0 L 1,0 M 0,-1 L 0,1"
       style="stroke-width:0.074"
       id="gpPt0" />
    <circle
       r="1"
       id="gpDot"
       cx="0"
       cy="0"
       sodipodi:cx="0"
       sodipodi:cy="0"
       sodipodi:rx="1"
       sodipodi:ry="1" />
  </defs>
  <sodipodi:namedview
     id="base"
     pagecolor="#ffffff"
     bordercolor="#666666"
     borderopacity="1.0"
     inkscape:pageopacity="0.0"
     inkscape:pageshadow="2"
     inkscape:zoom="1.4"
     inkscape:cx="452.43756"
     inkscape:cy="707.97912"
     inkscape:document-units="px"
     inkscape:current-layer="layer1"
     inkscape:window-width="1598"
     inkscape:window-height="1181"
     inkscape:window-x="0"
     inkscape:window-y="17" />
  <metadata
     id="metadata7">
    <rdf:RDF>
      <cc:Work
         rdf:about="">
        <dc:format>image/svg+xml</dc:format>
        <dc:type
           rdf:resource="http://purl.org/dc/dcmitype/StillImage" />
      </cc:Work>
    </rdf:RDF>
  </metadata>
  <g
     inkscape:label="Calque 1"
     inkscape:groupmode="layer"
     id="layer1"
     transform="translate(-306.42471,-125.48718)">
    <path
       style="fill:none;fill-rule:evenodd;stroke:#000000;stroke-width:1.77361095;stroke-linecap:round;stroke-linejoin:miter;stroke-miterlimit:4;stroke-dasharray:none;stroke-opacity:1"
       d="M 329.9787,169.55094 L 329.9787,380.99011"
       id="path2169" />
    <path
       id="path2171"
       d="M 537.32279,381.33784 L 330.14423,381.33784"
       style="fill:none;fill-rule:evenodd;stroke:#000000;stroke-width:1.75565052;stroke-linecap:round;stroke-linejoin:miter;stroke-miterlimit:4;stroke-dasharray:none;stroke-opacity:1" />
    <text
       xml:space="preserve"
       style="font-size:40.81726837px;font-style:italic;font-variant:normal;font-weight:normal;font-stretch:normal;text-align:start;line-height:125%;writing-mode:lr-tb;text-anchor:start;fill:#000000;fill-opacity:1;stroke:none;stroke-width:1px;stroke-linecap:butt;stroke-linejoin:miter;stroke-opacity:1;font-family:Times New Roman"
       x="543.43921"
       y="352.2674"
       id="text3176"
       sodipodi:linespacing="125%"
       transform="scale(0.9534376,1.0488363)"><tspan
         sodipodi:role="line"
         id="tspan3178"
         x="543.43921"
         y="352.2674">x</tspan></text>
    <text
       xml:space="preserve"
       style="font-size:40.00692368px;font-style:italic;font-variant:normal;font-weight:normal;font-stretch:normal;text-align:start;line-height:125%;writing-mode:lr-tb;text-anchor:start;fill:#000000;fill-opacity:1;stroke:none;stroke-width:1px;stroke-linecap:butt;stroke-linejoin:miter;stroke-opacity:1;font-family:Times New Roman"
       x="324.8053"
       y="197.86073"
       id="text3180"
       sodipodi:linespacing="125%"
       transform="scale(1.0544459,0.9483654)"><tspan
         sodipodi:role="line"
         id="tspan3182"
         x="324.8053"
         y="197.86073">y</tspan></text>
    <path
       style="fill:none;fill-rule:evenodd;stroke:#088509;stroke-width:2.7974999;stroke-linecap:round;stroke-linejoin:miter;stroke-miterlimit:4;stroke-dasharray:11.19, 11.19;stroke-dashoffset:0;stroke-opacity:1"
       d="M 445.32495,206.13591 L 333.95937,206.13591"
       id="path3210" />
    <path
       id="path3212"
       d="M 446.03639,206.76206 L 446.03639,375.50976"
       style="fill:none;fill-rule:evenodd;stroke:#098109;stroke-width:3.0687499;stroke-linecap:round;stroke-linejoin:miter;stroke-miterlimit:4;stroke-dasharray:12.275, 12.275;stroke-dashoffset:0;stroke-opacity:1" />
    <path
       style="fill:none;fill-rule:evenodd;stroke:#000000;stroke-width:2.47749996;stroke-linecap:round;stroke-linejoin:miter;stroke-miterlimit:4;stroke-dasharray:none;stroke-opacity:1"
       d="M 387.83678,371.57079 L 387.83678,388.87408"
       id="path3216" />
    <path
       id="path3218"
       d="M 445.91428,371.57079 L 445.91428,388.87408"
       style="fill:none;fill-rule:evenodd;stroke:#000000;stroke-width:2.47749996;stroke-linecap:round;stroke-linejoin:miter;stroke-miterlimit:4;stroke-dasharray:none;stroke-opacity:1" />
    <path
       style="fill:none;fill-rule:evenodd;stroke:#000000;stroke-width:2.47749996;stroke-linecap:round;stroke-linejoin:miter;stroke-miterlimit:4;stroke-dasharray:none;stroke-opacity:1"
       d="M 503.99178,371.57079 L 503.99178,388.87408"
       id="path3220" />
    <path
       id="path3270"
       d="M 321.00191,322.16078 L 338.30517,322.12928"
       style="fill:none;fill-rule:evenodd;stroke:#000000;stroke-width:2.47749996;stroke-linecap:round;stroke-linejoin:miter;stroke-miterlimit:4;stroke-dasharray:none;stroke-opacity:1" />
    <path
       style="fill:none;fill-rule:evenodd;stroke:#000000;stroke-width:2.47749996;stroke-linecap:round;stroke-linejoin:miter;stroke-miterlimit:4;stroke-dasharray:none;stroke-opacity:1"
       d="M 320.89617,264.08338 L 338.19943,264.05188"
       id="path3272" />
    <path
       id="path3274"
       d="M 320.79043,206.00598 L 338.09369,205.97447"
       style="fill:none;fill-rule:evenodd;stroke:#000000;stroke-width:2.47749996;stroke-linecap:round;stroke-linejoin:miter;stroke-miterlimit:4;stroke-dasharray:none;stroke-opacity:1" />
    <text
       xml:space="preserve"
       style="font-size:28px;font-style:normal;font-variant:normal;font-weight:normal;font-stretch:normal;text-align:start;line-height:125%;writing-mode:lr-tb;text-anchor:start;fill:#000000;fill-opacity:1;stroke:none;stroke-width:1px;stroke-linecap:butt;stroke-linejoin:miter;stroke-opacity:1;font-family:Times New Roman"
       x="387.94025"
       y="409.80957"
       id="text3284"
       sodipodi:linespacing="125%"><tspan
         sodipodi:role="line"
         id="tspan3286"
         x="387.94025"
         y="409.80957">1</tspan></text>
    <text
       xml:space="preserve"
       style="font-size:28px;font-style:normal;font-variant:normal;font-weight:normal;font-stretch:normal;text-align:start;line-height:125%;writing-mode:lr-tb;text-anchor:start;fill:#000000;fill-opacity:1;stroke:none;stroke-width:1px;stroke-linecap:butt;stroke-linejoin:miter;stroke-opacity:1;font-family:Times New Roman"
       x="446.5885"
       y="409.80957"
       id="text3292"
       sodipodi:linespacing="125%"><tspan
         sodipodi:role="line"
         id="tspan3294"
         x="446.5885"
         y="409.80957">2</tspan></text>
    <text
       xml:space="preserve"
       style="font-size:28px;font-style:normal;font-variant:normal;font-weight:normal;font-stretch:normal;text-align:start;line-height:125%;writing-mode:lr-tb;text-anchor:start;fill:#000000;fill-opacity:1;stroke:none;stroke-width:1px;stroke-linecap:butt;stroke-linejoin:miter;stroke-opacity:1;font-family:Times New Roman"
       x="505.33926"
       y="409.64551"
       id="text3300"
       sodipodi:linespacing="125%"><tspan
         sodipodi:role="line"
         id="tspan3302"
         x="505.33926"
         y="409.64551">3</tspan></text>
    <text
       sodipodi:linespacing="125%"
       id="text3320"
       y="329.32541"
       x="306.02603"
       style="font-size:28px;font-style:normal;font-variant:normal;font-weight:normal;font-stretch:normal;text-align:start;line-height:125%;writing-mode:lr-tb;text-anchor:start;fill:#000000;fill-opacity:1;stroke:none;stroke-width:1px;stroke-linecap:butt;stroke-linejoin:miter;stroke-opacity:1;font-family:Times New Roman"
       xml:space="preserve"><tspan
         y="329.32541"
         x="306.02603"
         id="tspan3322"
         sodipodi:role="line">1</tspan></text>
    <text
       sodipodi:linespacing="125%"
       id="text3324"
       y="271.4057"
       x="305.19424"
       style="font-size:28px;font-style:normal;font-variant:normal;font-weight:normal;font-stretch:normal;text-align:start;line-height:125%;writing-mode:lr-tb;text-anchor:start;fill:#000000;fill-opacity:1;stroke:none;stroke-width:1px;stroke-linecap:butt;stroke-linejoin:miter;stroke-opacity:1;font-family:Times New Roman"
       xml:space="preserve"><tspan
         y="271.4057"
         x="305.19424"
         id="tspan3326"
         sodipodi:role="line">2</tspan></text>
    <text
       sodipodi:linespacing="125%"
       id="text3328"
       y="212.39549"
       x="305.91617"
       style="font-size:28px;font-style:normal;font-variant:normal;font-weight:normal;font-stretch:normal;text-align:start;line-height:125%;writing-mode:lr-tb;text-anchor:start;fill:#000000;fill-opacity:1;stroke:none;stroke-width:1px;stroke-linecap:butt;stroke-linejoin:miter;stroke-opacity:1;font-family:Times New Roman"
       xml:space="preserve"><tspan
         y="212.39549"
         x="305.91617"
         id="tspan3330"
         sodipodi:role="line">3</tspan></text>
    <path
       sodipodi:type="arc"
       style="fill:#ffff00;fill-opacity:1;stroke:none;stroke-width:2.47749996;stroke-linecap:round;stroke-miterlimit:4;stroke-dasharray:none;stroke-dashoffset:0;stroke-opacity:1"
       id="path3332"
       sodipodi:cx="46.177883"
       sodipodi:cy="96.033653"
       sodipodi:rx="24.110577"
       sodipodi:ry="27.379808"
       d="M 70.28846 96.033653 A 24.110577 27.379808 0 1 1  22.067307,96.033653 A 24.110577 27.379808 0 1 1  70.28846 96.033653 z"
       transform="matrix(0.1483051,0,0,0.1366246,323.10227,368.1864)" />
    <path
       transform="matrix(0.1483051,0,0,0.1366246,439.15996,193.28255)"
       d="M 70.28846 96.033653 A 24.110577 27.379808 0 1 1  22.067307,96.033653 A 24.110577 27.379808 0 1 1  70.28846 96.033653 z"
       sodipodi:ry="27.379808"
       sodipodi:rx="24.110577"
       sodipodi:cy="96.033653"
       sodipodi:cx="46.177883"
       id="path3342"
       style="fill:#008000;fill-opacity:1;stroke:none;stroke-width:2.47749996;stroke-linecap:round;stroke-miterlimit:4;stroke-dasharray:none;stroke-dashoffset:0;stroke-opacity:1"
       sodipodi:type="arc" />
    <text
       transform="scale(0.9248955,1.0812032)"
       sodipodi:linespacing="125%"
       id="text3356"
       y="223.1107"
       x="510.7597"
       style="font-size:24.97720528px;font-style:normal;font-variant:normal;font-weight:bold;font-stretch:normal;text-align:start;line-height:125%;writing-mode:lr-tb;text-anchor:start;fill:#008000;fill-opacity:1;stroke:none;stroke-width:1px;stroke-linecap:butt;stroke-linejoin:miter;stroke-opacity:1;font-family:Times New Roman"
       xml:space="preserve"><tspan
         y="223.1107"
         x="510.7597"
         id="tspan3358"
         sodipodi:role="line">(2,3)</tspan></text>
    <path
       style="fill:none;fill-rule:evenodd;stroke:#000000;stroke-width:2.47888494;stroke-linecap:round;stroke-linejoin:miter;stroke-miterlimit:4;stroke-dasharray:none;stroke-opacity:1"
       d="M 538.51791,380.95963 L 521.16919,375.732"
       id="path3360" />
    <path
       id="path3362"
       d="M 538.51142,381.85744 L 521.08899,386.83388"
       style="fill:none;fill-rule:evenodd;stroke:#000000;stroke-width:2.47888494;stroke-linecap:round;stroke-linejoin:miter;stroke-miterlimit:4;stroke-dasharray:none;stroke-opacity:1" />
    <path
       id="path3364"
       d="M 324.41242,186.7269 L 329.51459,169.34087"
       style="fill:none;fill-rule:evenodd;stroke:#000000;stroke-width:2.47888494;stroke-linecap:round;stroke-linejoin:miter;stroke-miterlimit:4;stroke-dasharray:none;stroke-opacity:1" />
    <path
       style="fill:none;fill-rule:evenodd;stroke:#000000;stroke-width:2.47888494;stroke-linecap:round;stroke-linejoin:miter;stroke-miterlimit:4;stroke-dasharray:none;stroke-opacity:1"
       d="M 335.51459,186.7269 L 330.41242,169.34087"
       id="path3366" />
    <g
       id="g3805"
       transform="matrix(0.112727,7.5215176e-2,-6.0415731e-2,9.0546658e-2,442.20978,177.89795)">
	<path
   id="path3807"
   d="M 142,23.241 C 145.631,25.735 146.206,31.387 146,34.574 C 143.044,31.583 143.993,23.604 142,23.241 z "
   clip-rule="evenodd"
   style="fill:#f8ed9b;fill-rule:evenodd" />

	<path
   id="path3809"
   d="M 129.333,24.575 C 130,24.575 130.666,24.575 131.333,24.575 C 130.469,27.049 133.348,27.05 132.666,30.575 C 128.985,30.239 129.164,28.408 129.333,24.575 z "
   clip-rule="evenodd"
   style="fill:#f8ed9b;fill-rule:evenodd" />

	<path
   id="path3811"
   d="M 146,58.575 C 145.624,61.03 147.339,65.504 142,66.575 C 144.069,63.936 141.956,61.941 141.333,58.575 C 143.784,58.992 144.653,58.266 146,58.575 z "
   clip-rule="evenodd"
   style="fill:#f8ed9b;fill-rule:evenodd" />

	<path
   id="path3813"
   d="M 138,59.241 C 135.697,60.828 135.079,60.193 131.333,60.574 C 132.479,59.148 136.597,58.325 138,59.241 z "
   clip-rule="evenodd"
   style="fill:#f8ed9b;fill-rule:evenodd" />

	<path
   id="path3815"
   d="M 112,61.241 C 113.31,58.616 114.671,59.622 118.667,59.241 C 118.567,63.216 117.653,64.369 118.667,68.574 C 118.074,68.164 117.475,67.768 117.334,68.574 C 114.24,66.209 114.938,60.457 112,61.241 z "
   clip-rule="evenodd"
   style="fill:#f8ed9b;fill-rule:evenodd" />

	<path
   id="path3817"
   d="M 126,79.241 C 124.408,81.168 119.432,78.684 120,81.241 C 114.881,81.373 116.228,78.498 110.667,78.574 C 115.586,76.815 121.879,74.879 126,79.241 z "
   clip-rule="evenodd"
   style="fill:#f8ed9b;fill-rule:evenodd" />

	<path
   id="path3819"
   d="M 104.667,79.241 C 101.941,80.291 96.056,82.211 95.334,84.574 C 89.944,85.793 84.801,87.203 82.667,92.574 C 81.308,91.41 81.36,93.071 80,91.907 C 80.721,87.626 85.988,84.716 88.667,84.574 C 88.667,83.907 88.667,83.241 88.667,82.574 C 92.566,83.439 98.441,76.535 104.667,79.241 z "
   clip-rule="evenodd"
   style="fill:#f8ed9b;fill-rule:evenodd" />

	<path
   id="path3821"
   d="M 118.667,88.575 C 121.076,90.119 118.013,90.76 118.667,93.908 C 116.696,92.944 118.092,92.419 117.334,89.908 C 117.927,89.612 118.526,89.322 118.667,88.575 z "
   clip-rule="evenodd"
   style="fill:#f8ed9b;fill-rule:evenodd" />

	<path
   id="path3823"
   d="M 126.667,88.575 C 128.658,90.714 129.184,95.649 126.667,98.575 C 126.131,98.222 125.585,97.879 124.667,97.908 C 126.022,94.118 126.316,92.828 126.667,88.575 z "
   clip-rule="evenodd"
   style="fill:#f8ed9b;fill-rule:evenodd" />

	<path
   id="path3825"
   d="M 112,89.908 C 112.96,90.059 112.232,91.898 113.333,91.908 C 112.643,93.925 110.689,94.201 110,94.575 C 108.609,93.568 111.678,91.408 112,89.908 z "
   clip-rule="evenodd"
   style="fill:#f8ed9b;fill-rule:evenodd" />

	<path
   id="path3827"
   d="M 54,90.575 C 55.696,90.642 55.575,93.059 54.667,93.908 C 52.832,93.08 53.642,91.969 54,90.575 z "
   clip-rule="evenodd"
   style="fill:#f8ed9b;fill-rule:evenodd" />

	<path
   id="path3829"
   d="M 219.333,90.575 C 220.407,91.571 222.936,89.741 222.667,93.242 C 220.388,93.52 218.868,93.04 219.333,90.575 z "
   clip-rule="evenodd"
   style="fill:#f8ed9b;fill-rule:evenodd" />

	<path
   id="path3831"
   d="M 96,91.241 C 98.867,92.209 98.391,98.363 98,100.574 C 94.472,98.603 94.156,95.442 96,91.241 z "
   clip-rule="evenodd"
   style="fill:#f8ed9b;fill-rule:evenodd" />

	<path
   id="path3833"
   d="M 88.667,92.575 C 91.676,96.492 90.024,99.777 92,105.908 C 87.622,105.175 89.765,97.921 87.333,95.241 C 87.342,93.917 89.152,94.394 88.667,92.575 z "
   clip-rule="evenodd"
   style="fill:#f8ed9b;fill-rule:evenodd" />

	<path
   id="path3835"
   d="M 224.667,93.241 C 225.654,94.42 228.112,91.989 228,95.241 C 227.013,96.239 224.555,95.303 224.667,93.241 z "
   clip-rule="evenodd"
   style="fill:#f8ed9b;fill-rule:evenodd" />

	<path
   id="path3837"
   d="M 44,93.908 C 45.168,94.517 46.316,95.148 46,97.241 C 45.111,97.241 44.222,97.241 43.333,97.241 C 44.087,95.148 43.142,95.48 44,93.908 z "
   clip-rule="evenodd"
   style="fill:#f8ed9b;fill-rule:evenodd" />

	<path
   id="path3839"
   d="M 70.667,115.241 C 77.674,115.255 78.211,110.595 78,106.574 C 75.057,107.521 77.799,102.818 74.667,103.907 C 74.385,102.514 75.124,102.142 75.334,101.24 C 75.927,101.758 76.839,101.957 78.001,101.907 C 78.124,102.474 77.741,102.536 77.334,102.574 C 80.564,104.29 77.496,106.624 80.001,107.907 C 77.764,109.036 79.87,111.502 79.334,112.574 C 77.326,116.591 70.746,118.229 68.667,117.241 C 67.218,116.553 61.623,112.205 67.334,111.241 C 67.457,111.808 67.074,111.87 66.667,111.908 C 66.775,112.689 67.883,112.47 68.667,112.575 C 66.991,114.771 70.339,112.443 70.667,115.241 z "
   clip-rule="evenodd"
   style="fill:#f8ed9b;fill-rule:evenodd" />

	<path
   id="path3841"
   d="M 33.333,106.575 C 33.221,105.129 35.697,106.273 36.666,105.908 C 36.666,106.797 36.666,107.686 36.666,108.575 C 35.12,108.787 34.106,108.468 33.333,107.908 C 33.743,107.314 34.139,106.715 33.333,106.575 z "
   clip-rule="evenodd"
   style="fill:#f8ed9b;fill-rule:evenodd" />

	<path
   id="path3843"
   d="M 57.333,113.908 C 61.427,119.398 49.313,126.682 54,132.575 C 50.917,134.335 50.621,136.414 48,140.575 C 45.191,137.849 51.179,128.3 50.667,125.242 C 50.775,124.461 51.883,124.68 52.667,124.575 C 51.385,121.175 56.096,117.296 57.333,113.908 z "
   clip-rule="evenodd"
   style="fill:#f8ed9b;fill-rule:evenodd" />

	<path
   id="path3845"
   d="M 61.333,121.908 C 67.671,129.864 59.339,138.814 54.666,140.575 C 53.221,140.687 54.364,138.21 53.999,137.242 C 65.281,134.588 58.667,127.182 61.333,121.908 z "
   clip-rule="evenodd"
   style="fill:#f8ed9b;fill-rule:evenodd" />

	<path
   id="path3847"
   d="M 50,159.241 C 48.751,161.77 49.053,165.849 44.667,165.241 C 46.282,161.757 46.818,160.14 50,159.241 z "
   clip-rule="evenodd"
   style="fill:#f8ed9b;fill-rule:evenodd" />

	<path
   id="path3849"
   d="M 231.333,178.575 C 233.776,180.422 229.249,180.882 228.667,181.908 C 227.494,188.254 226.086,190.704 228,195.241 C 230.52,195.166 231.585,196.546 232,198.574 C 230.667,198.574 229.333,198.574 228,198.574 C 227.877,198.008 228.26,197.945 228.667,197.908 C 228.559,197.127 227.451,197.346 226.667,197.241 C 224.37,191.175 226.336,185.48 228,179.908 C 228.529,177.853 231.134,179.568 231.333,178.575 z "
   clip-rule="evenodd"
   style="fill:#f8ed9b;fill-rule:evenodd" />

	<path
   id="path3851"
   d="M 236.667,183.908 C 238.9,189.638 239.061,196.761 238.667,200.575 C 237.599,196.2 234.978,190.049 236.667,183.908 z "
   clip-rule="evenodd"
   style="fill:#f8ed9b;fill-rule:evenodd" />

	<path
   id="path3853"
   d="M 32,205.908 C 43.236,206.102 38.688,218.326 36.667,225.241 C 34.591,225.247 32.323,226.817 30.667,225.241 C 35.202,223.081 37.996,217.485 36.667,210.574 C 35.93,208.867 33.087,209.265 30.667,209.241 C 31.411,207.692 30.524,207.457 32,205.908 z "
   clip-rule="evenodd"
   style="fill:#f8ed9b;fill-rule:evenodd" />

	<path
   id="path3855"
   d="M 52.667,272.574 C 52.321,271.321 46.539,272.555 45.334,271.908 C 46.609,269.663 48.165,268.727 50.001,268.574 C 53.612,270.297 56.117,273.126 58.001,276.574 C 57.176,279.377 51.23,274.065 52.667,272.574 z "
   clip-rule="evenodd"
   style="fill:#f8ed9b;fill-rule:evenodd" />

	<path
   id="path3857"
   d="M 57.333,280.574 C 57.926,280.984 58.525,281.38 58.666,280.574 C 61.004,280.756 57.462,283.526 59.333,283.241 C 58.184,285.725 54.649,285.202 55.333,287.908 C 54.222,287.908 53.111,287.908 52,287.908 C 52.41,287.314 52.806,286.716 52,286.574 C 54.629,285.426 56.072,283.091 57.333,280.574 z "
   clip-rule="evenodd"
   style="fill:#f8ed9b;fill-rule:evenodd" />

	<path
   id="path3859"
   d="M 194.667,300.574 C 193.038,298.885 193.246,301.979 190.667,301.241 C 190.238,304.208 190.013,308.303 188.667,313.241 C 187.14,312.101 187.09,309.484 186.667,307.241 C 188.657,303.932 189.914,296.044 194.667,300.574 z "
   clip-rule="evenodd"
   style="fill:#f8ed9b;fill-rule:evenodd" />

	<path
   id="path3861"
   d="M 87.333,302.574 C 88.505,302.735 88.853,303.721 88.666,305.241 C 85.813,306.799 84.968,308.595 81.333,310.574 C 79.668,307.022 84.798,305.408 87.333,302.574 z "
   clip-rule="evenodd"
   style="fill:#f8ed9b;fill-rule:evenodd" />

	<path
   id="path3863"
   d="M 172.667,315.241 C 170.805,314.863 171.044,312.799 170.667,309.908 C 171.333,309.908 172,309.908 172.667,309.908 C 173.265,314.491 175.002,315.148 174.667,319.908 C 173.471,319.992 173.261,319.092 172,319.241 C 173.281,317.578 170.982,316.502 172.667,315.241 z "
   clip-rule="evenodd"
   style="fill:#f8ed9b;fill-rule:evenodd" />

	<path
   id="path3865"
   d="M 66.667,312.574 C 71.207,311.812 71.191,315.606 74.667,315.908 C 73.431,319.466 67.708,315.287 66.667,312.574 z "
   clip-rule="evenodd"
   style="fill:#f8ed9b;fill-rule:evenodd" />

	<path
   id="path3867"
   d="M 143.333,312.574 C 145.011,317.816 148.77,316.885 150,322.574 C 149.04,324.05 148.373,321.735 148,323.241 C 147.198,318.894 139.38,311.448 138,317.908 C 136.476,318.605 135.638,319.99 133.333,319.908 C 133.895,313.732 138.037,312.578 143.333,312.574 z "
   clip-rule="evenodd"
   style="fill:#f8ed9b;fill-rule:evenodd" />

	<path
   id="path3869"
   d="M 99.333,313.908 C 100.592,313.981 99.795,316.112 101.333,315.908 C 99.478,318.31 100.521,319.506 98.666,321.908 C 96.686,319.666 99.039,316.086 99.333,313.908 z "
   clip-rule="evenodd"
   style="fill:#f8ed9b;fill-rule:evenodd" />

	<path
   id="path3871"
   d="M 128,336.574 C 127,337.352 126.37,338.5 124.667,338.574 C 123.09,335.794 125.795,335.573 128,336.574 z "
   clip-rule="evenodd"
   style="fill:#f8ed9b;fill-rule:evenodd" />

	<path
   id="path3873"
   d="M 136,7.241 C 137.154,7.037 142.513,9.98 143.333,9.908 C 147.296,13.92 145.042,20.255 148.667,23.908 C 147.556,28.973 154.73,35.922 152,40.575 C 156.896,44.324 149.206,59.743 153.333,61.242 C 152.942,62.629 151.933,63.397 151.333,64.575 C 152.615,66.238 150.316,67.314 152,68.575 C 147.497,76.201 154.75,74.706 158,75.242 C 166.957,76.718 178.752,74.968 188.667,82.575 C 192.295,85.358 191.475,89.584 198.667,89.242 C 204.271,91.284 218.207,79.602 226.667,89.242 C 227.636,86.348 234.203,93.867 237.333,93.242 C 242.039,100.942 243.607,88.21 249.333,87.909 C 254.232,87.652 262.626,92.909 266,92.576 C 266.569,93.784 267.717,94.414 268,95.909 C 266.964,94.652 265.402,96.866 264,95.242 C 267.52,100.73 272.744,96.569 272.667,105.242 C 268.437,104.822 270.394,101.318 264.667,102.575 C 264.667,103.686 264.667,104.797 264.667,105.908 C 267.821,106.969 270.061,110.33 268,111.908 C 267.377,112.386 261.218,110.412 258,112.575 C 256.596,113.519 255.479,115.001 255.333,117.242 C 253.449,118.235 251.094,117.205 249.333,115.242 C 249.211,115.809 249.594,115.871 250,115.909 C 247.731,114.451 231.608,118.136 230,111.242 C 228.56,111.59 218.817,103.748 217.333,109.909 C 217.18,110.546 222.981,120.31 224,121.909 C 224.385,122.514 225.003,122.607 226,122.576 C 227.207,129.531 228.842,137.488 233.333,148.576 C 233.441,149.357 234.549,149.138 235.333,149.243 C 236.677,157.312 235.444,165.285 238,174.576 C 238.373,176.082 239.04,173.767 240,175.243 C 241.237,185.946 243.982,189.927 243.333,195.91 C 238.7,201.79 244.147,204.427 243.333,211.243 C 244.478,209.28 246.039,215.415 242.667,215.243 C 242.848,216.813 245.619,215.65 245.333,214.576 C 246.035,220.889 245.886,228.59 244.667,234.576 C 244.457,235.608 240.298,245.824 244.667,249.243 C 241.591,253.497 243.353,259.47 243.333,262.576 C 240.348,264.604 239.954,269.147 240,271.243 C 239,272.021 238.37,273.169 236.667,273.243 C 237.395,277.241 231.231,279.427 232,284.576 C 229.472,284.038 231.078,289.098 228,288.576 C 229.172,293.698 220.659,297.609 222.667,303.91 C 226.495,302.681 224.958,305.423 226,305.91 C 229.256,307.432 239.892,302.64 242.667,309.243 C 242.094,306.683 251.08,311.889 252,311.91 C 256.363,316.388 249.61,317.672 245.333,313.243 C 242.83,314.392 245.429,316.761 244,317.91 C 245.14,319.436 247.757,319.486 250,319.91 C 249.29,320.982 250.167,321.859 252.667,322.576 C 252.241,324.634 254.302,326.412 254,327.91 C 253.391,328.653 252.761,328.12 250.667,328.576 C 251.52,325.056 248.119,325.79 248,323.243 C 245.948,322.747 246.719,325.073 244.667,324.576 C 244.633,329.338 243.061,328.291 244.667,332.576 C 247.176,330.589 244.043,334.741 247.333,334.576 C 248.077,337.888 247.114,339.964 247.333,341.243 C 246.25,343.759 245.169,337.308 244.667,339.243 C 244.355,337.745 244.304,335.968 242,333.91 C 239.454,336.933 236.167,335.931 233.333,339.243 C 234.045,339.865 233.541,341.702 235.333,341.243 C 233.981,344.593 231.433,342.641 230,345.91 C 228.204,344.829 221.532,346.903 220.667,341.91 C 218.893,342.447 217.601,340.758 218,341.243 C 214.158,336.577 210.082,338.282 207.333,336.576 C 203.218,334.022 204.863,331.138 201.333,328.576 C 203.401,323.303 199.12,323.47 200.667,320.576 C 192.284,321.662 192.347,324.648 183.333,324.576 C 176.413,332.508 166.738,338.888 158,333.91 C 155.715,332.607 153.185,336.409 150,337.91 C 144.024,340.725 138.749,337.768 134,339.91 C 134.398,349.19 134.32,359.012 136,368.576 C 136.165,369.512 136.767,368.697 136.667,368.576 C 138.81,371.167 136.47,374.836 137.334,377.91 C 137.679,379.135 139.24,379.356 139.334,379.91 C 139.514,380.961 138.011,379.756 138.001,379.91 C 137.933,380.973 140.207,389.171 140.001,388.576 C 140.703,390.599 140.397,390.78 140.668,392.576 C 131.949,393.971 134.523,386.668 130.668,384.576 C 131.509,383.794 131.203,381.806 129.335,381.91 C 129.152,374.748 126.543,372.423 126.002,361.91 C 125.543,361.757 125.233,362.209 125.335,362.576 C 122.699,353.111 122.432,347.964 120.668,336.576 C 113.181,338.472 106.003,333.638 101.335,332.576 C 101.617,331.182 100.878,330.811 100.668,329.91 C 94.219,334.559 86.591,326.539 81.335,327.91 C 80.945,328.012 79.835,326.643 80.002,326.576 C 78.015,327.38 78.966,330.844 80.002,331.91 C 83.066,339.91 75.594,341.764 74.669,345.91 C 73.997,348.921 76.528,350.98 74.669,354.576 C 73.398,353.325 73.463,354.972 71.336,354.576 C 71.58,358.268 71.37,358.45 72.003,361.243 C 69.687,363.09 64.907,364.282 64.003,365.243 C 62.835,364.634 61.687,364.004 62.003,361.91 C 57.431,362.04 60.674,365.88 54.67,364.576 C 51.551,367.279 56.885,373.756 54.003,376.576 C 49.053,375.822 48.19,369.208 50.003,363.91 C 48.379,361.453 45.926,361.753 42.67,359.91 C 40.754,360.831 41.71,362.988 42.003,363.91 C 42.632,365.142 38.188,364.319 40.67,365.243 C 35.211,366.68 38.839,360.04 40.003,355.91 C 41.328,351.209 37.317,344.78 35.336,344.576 C 31.732,344.206 35.812,349.255 32.003,349.91 C 34.221,349.477 33.313,349.91 34.003,351.91 C 32.549,352.018 32.067,354.413 30.67,353.243 C 25.39,348.819 36.516,333.755 41.337,329.243 C 42.732,330.427 43.842,328.719 44.67,329.91 C 48.635,326.977 46.467,321.626 52.003,319.91 C 53.211,316.488 50.511,314.892 54.003,314.576 C 51.522,308.075 54.724,307.442 51.336,301.243 C 46.303,299.861 38.047,291.672 38.003,287.243 C 35.902,289.405 37.722,284.699 34.67,285.91 C 34.8,284.046 36.364,281.789 33.337,280.576 C 35.191,275.102 25.298,267.875 26.004,262.576 C 25.897,261.795 24.789,262.014 24.004,261.91 C 24.671,260.295 24.881,258.962 22.671,257.91 C 24.527,256.717 23.266,258.383 22.671,256.576 C 20.055,248.631 23.067,231.12 21.338,221.91 C 20.634,218.16 21.872,210.92 20.671,207.91 C 25.486,200.204 24.292,191.054 27.338,185.91 C 26.8,185.787 26.671,186.17 26.671,186.577 C 26.666,182.026 29.845,176.491 32.004,169.244 C 36.319,169.22 32.983,163.935 36.671,163.911 C 36.581,154.885 41.942,146.876 44.671,137.244 C 45.369,134.782 45.39,132.478 46.004,129.911 C 46.004,129.912 47.303,130.727 47.337,130.578 C 47.697,129.02 49.065,123.43 50.67,120.578 C 53.055,116.34 59.906,110.552 50.003,109.911 C 47.879,112.068 38.695,118.105 36.67,112.578 C 29.86,114.684 23.202,121.205 16.003,113.245 C 11.068,115.079 13.555,121.294 10.67,122.578 C 9.184,123.24 10.124,117.826 8.67,121.911 C 7.344,121.46 9.329,119.696 8.003,119.244 C 8.11,118.463 9.218,118.682 10.003,118.577 C 8.657,116.487 10.487,112.691 13.336,111.244 C 13.732,109.117 12.085,109.182 13.336,107.911 C 10.64,104.601 6.18,107.562 4.003,111.244 C 2.67,111.244 1.336,111.244 0.003,111.244 C 0.465,110.069 0.739,109.18 0.003,108.577 C 1.815,107.743 2.014,105.31 5.336,102.577 C 7.165,101.072 13.651,100.862 9.336,98.577 C 8.39,98.076 7.384,100.644 5.336,99.244 C 5.336,98.577 5.336,97.911 5.336,97.244 C 7.629,97.598 7.949,94.583 8,93.908 C 11.405,90.896 14.523,94.503 16,93.241 C 17.309,92.124 15.463,90.345 16,89.908 C 18.673,87.732 20.959,88.763 25.333,89.908 C 30.159,85.225 31.337,89.788 34.666,91.908 C 34.306,91.679 38.257,90.371 35.999,91.241 C 41.401,89.159 47.004,86.398 51.999,83.908 C 61.559,83.374 66.263,89.796 73.332,93.241 C 74.513,92.901 77.417,88.876 75.999,91.908 C 78.667,92.405 78.255,87.772 78.666,87.241 C 81.179,83.995 92.245,76.162 93.333,76.574 C 96.682,77.842 105.171,72.459 110.666,75.907 C 112.581,70.902 106.378,62.791 108.666,56.574 C 106.769,57.355 108.032,55.091 107.999,54.574 C 107.651,48.953 106.066,42.57 109.332,33.241 C 110.214,30.721 112.298,28.933 112.665,26.574 C 112.956,24.711 111.603,22.506 111.998,19.907 C 112.573,16.12 115.681,13.262 116.665,9.907 C 118.719,11.309 120.014,7.343 123.332,7.907 C 123.332,6.796 123.332,5.685 123.332,4.574 C 125.858,3.345 130.056,-2.518 133.332,1.241 C 134.161,2.368 136.66,5.387 136,7.241 z M 146,34.575 C 146.206,31.387 145.631,25.736 142,23.242 C 143.993,23.604 143.044,31.583 146,34.575 z M 114,35.908 C 114.141,35.102 114.74,35.498 115.333,35.908 C 116.451,31.563 119.227,26.04 116,25.241 C 115.943,28.989 112.298,33.637 114,35.908 z M 132.667,30.575 C 133.349,27.05 130.47,27.049 131.334,24.575 C 130.667,24.575 130.001,24.575 129.334,24.575 C 129.164,28.408 128.985,30.239 132.667,30.575 z M 125.333,35.241 C 125.371,34.834 125.433,34.452 126,34.574 C 126.365,35.543 125.221,38.02 126.667,37.907 C 127.113,34.795 125.595,33.646 124.667,31.907 C 123.674,33.302 125.333,34.414 125.333,35.241 z M 134.667,39.241 C 135.86,37.99 137.048,36.733 138,35.241 C 137.119,35.233 137.391,34.073 136.667,33.908 C 138.871,36.534 133.031,37.5 134.667,39.241 z M 138,57.241 C 138.858,57.028 141.313,56.687 144,56.574 C 146.222,53.97 142.544,47.418 142.667,45.241 C 141.31,45.043 140.891,43.906 140,43.241 C 139.438,48.531 138.057,51.701 138,57.241 z M 120,44.575 C 116.101,49.514 115.154,61.952 123.333,57.242 C 123.026,53.289 123.638,52.529 121.333,50.575 C 121.896,48.974 121.896,46.175 121.333,44.575 C 121.192,45.38 120.593,44.984 120,44.575 z M 141.333,58.575 C 141.956,61.941 144.069,63.936 142,66.575 C 147.339,65.504 145.624,61.03 146,58.575 C 144.653,58.266 143.784,58.992 141.333,58.575 z M 131.333,60.575 C 135.079,60.193 135.697,60.828 138,59.242 C 136.597,58.325 132.479,59.148 131.333,60.575 z M 117.333,68.575 C 117.474,67.769 118.073,68.165 118.666,68.575 C 117.652,64.369 118.566,63.216 118.666,59.242 C 114.67,59.623 113.309,58.617 111.999,61.242 C 114.938,60.457 114.24,66.209 117.333,68.575 z M 110.667,78.575 C 116.228,78.498 114.881,81.373 120,81.242 C 119.432,78.685 124.408,81.169 126,79.242 C 121.879,74.879 115.586,76.815 110.667,78.575 z M 158,79.908 C 159.104,76.854 154.763,77.802 154,78.575 C 146.499,74.954 134.698,79.732 128,76.575 C 127.604,78.702 129.251,78.637 128,79.908 C 146.2,81.542 140.812,80.22 158,79.908 z M 88.667,82.575 C 88.667,83.242 88.667,83.908 88.667,84.575 C 85.988,84.717 80.722,87.627 80,91.908 C 81.359,93.072 81.307,91.411 82.667,92.575 C 84.801,87.204 89.944,85.794 95.334,84.575 C 96.056,82.211 101.941,80.291 104.667,79.242 C 98.441,76.535 92.566,83.439 88.667,82.575 z M 168.667,79.908 C 171.842,80.818 173.621,83.942 177.333,85.241 C 186.05,83.421 187.149,89.903 191.333,89.908 C 186.269,82.368 171.786,77.761 161.333,78.575 C 162.039,82.182 166.266,79.22 168.667,79.908 z M 101.333,89.241 C 102.384,94.164 100.258,94.595 103.333,97.908 C 103.138,93.541 103.288,92.973 102.666,89.241 C 103.036,89.243 103.423,88.701 102.666,88.574 C 102.52,89.094 102.108,89.35 101.333,89.241 z M 117.333,89.908 C 118.091,92.419 116.695,92.944 118.666,93.908 C 118.012,90.76 121.075,90.119 118.666,88.575 C 118.526,89.322 117.927,89.612 117.333,89.908 z M 124.667,97.908 C 125.585,97.879 126.131,98.222 126.667,98.575 C 129.184,95.649 128.658,90.714 126.667,88.575 C 126.316,92.828 126.022,94.118 124.667,97.908 z M 166.667,91.908 C 169.209,92.785 165.634,95.911 169.333,95.908 C 168.23,93.152 170.806,90.68 169.333,88.575 C 169.174,89.825 168.235,88.197 168,89.242 C 169.806,89.844 166.476,90.732 166.667,91.908 z M 142,91.908 C 141.712,93.434 142.264,96.377 142.667,99.241 C 142.863,97.852 144.471,100.23 144.667,97.908 C 144.111,94.512 142.936,86.945 142,91.908 z M 110,94.575 C 110.69,94.201 112.644,93.925 113.333,91.908 C 112.232,91.898 112.96,90.059 112,89.908 C 111.678,91.408 108.609,93.568 110,94.575 z M 175.333,99.908 C 177.047,98.205 176.837,92.444 176,89.908 C 174.183,92.561 175.319,97.295 175.333,99.908 z M 54.667,93.908 C 55.576,93.059 55.697,90.642 54,90.575 C 53.642,91.969 52.832,93.08 54.667,93.908 z M 222.667,93.241 C 222.936,89.74 220.407,91.571 219.333,90.574 C 218.868,93.04 220.388,93.52 222.667,93.241 z M 98,100.575 C 98.391,98.363 98.867,92.209 96,91.242 C 94.156,95.442 94.472,98.603 98,100.575 z M 181.333,104.575 C 182.498,101.766 182.502,98.984 184.667,99.908 C 184.991,94.783 186.945,94.816 184,91.241 C 183.84,92.491 182.902,90.863 182.667,91.908 C 185.755,94.444 178.329,99.993 181.333,104.575 z M 193.333,91.241 C 193.124,92.142 192.385,92.514 192.667,93.908 C 193.076,94.832 195.233,94.009 195.333,95.241 C 192.765,98.61 193.473,104.257 190.667,107.908 C 195.791,109.837 196.974,117.535 206.667,117.241 C 207.197,115.992 212.439,113.837 210.667,110.574 C 205.496,113.396 199.187,116.924 197.333,110.574 C 199.174,112.395 197.959,109.597 199.333,109.241 C 200.161,110.432 201.272,108.723 202.667,109.908 C 203.054,108.073 204.326,107.123 204.667,105.241 C 203.556,105.241 202.444,105.241 201.333,105.241 C 200.182,105.645 201.385,108.403 200,108.574 C 199.556,108.574 199.111,108.574 198.667,108.574 C 199.777,107.249 198.606,107.726 198.667,105.907 C 200.511,106.02 200.955,104.883 200,103.907 C 202.539,106.105 201.405,101.347 202,101.24 C 203.364,104.081 207.336,105.916 207.333,103.907 C 208.937,104.778 211.333,108.314 212.667,107.24 C 213.024,105.695 209.89,105.055 210,101.907 C 203.177,97.584 201.848,94.054 193.333,91.241 z M 209.333,91.908 C 210.435,91.918 209.706,93.757 210.667,93.908 C 210.808,93.102 211.406,93.498 212,93.908 C 212.462,92.733 212.736,91.844 212,91.241 C 212.285,93.112 209.515,89.57 209.333,91.908 z M 61.333,95.241 C 61.333,94.797 61.333,94.352 61.333,93.908 C 61.295,93.501 61.233,93.119 60.666,93.241 C 59.977,95.101 58.022,89.738 57.333,93.241 C 59.873,92.702 59.379,95.195 61.333,95.241 z M 87.333,95.241 C 89.765,97.921 87.622,105.175 92,105.908 C 90.024,99.777 91.676,96.491 88.667,92.575 C 89.152,94.394 87.342,93.917 87.333,95.241 z M 228,95.241 C 228.112,91.989 225.654,94.42 224.667,93.241 C 224.555,95.303 227.013,96.239 228,95.241 z M 43.333,97.241 C 44.222,97.241 45.111,97.241 46,97.241 C 46.316,95.147 45.168,94.517 44,93.908 C 43.142,95.48 44.087,95.148 43.333,97.241 z M 74,109.908 C 73.194,109.767 73.59,109.168 74,108.575 C 65.725,105.11 71.459,97.641 77.333,94.575 C 72.379,93.421 68.152,100.052 64.666,103.908 C 62.531,106.27 57.794,109.618 59.999,112.575 C 62.414,109.803 62.177,104.658 69.332,105.242 C 68.499,108.085 72.488,110.097 74,109.908 z M 250,96.575 C 251.536,96.814 255.345,95.002 254.667,95.242 C 254.293,93.736 253.627,96.051 252.667,94.575 C 252.485,95.949 249.715,94.733 250,96.575 z M 22,95.908 C 21.962,96.315 21.9,96.698 21.333,96.575 C 19.91,95.115 13.908,94.876 15.333,97.242 C 16.844,95.918 22.15,98.284 22,95.908 z M 12.667,103.241 C 15.467,105.511 18.938,102.174 20.667,100.574 C 18.355,100.674 15.996,101.84 12.667,103.241 z M 138,104.575 C 137.194,104.434 137.59,103.835 138,103.242 C 132.557,104.018 129.857,102.052 127.333,99.909 C 121.025,103.477 112.562,101.491 111.333,105.909 C 119.947,104.909 128.393,98.566 132.666,106.576 C 133.75,114.705 131.715,120.784 134.666,124.576 C 135.386,120.744 134.444,108.103 138,104.575 z M 68.667,112.575 C 67.883,112.471 66.775,112.689 66.667,111.908 C 67.074,111.87 67.457,111.808 67.334,111.241 C 61.623,112.205 67.218,116.553 68.667,117.241 C 70.746,118.229 77.326,116.591 79.334,112.574 C 79.87,111.502 77.764,109.036 80.001,107.907 C 77.496,106.624 80.565,104.29 77.334,102.574 C 77.741,102.536 78.123,102.474 78.001,101.907 C 76.84,101.957 75.928,101.758 75.334,101.24 C 75.124,102.141 74.385,102.513 74.667,103.907 C 77.8,102.818 75.058,107.521 78,106.574 C 78.211,110.594 77.674,115.255 70.667,115.241 C 70.339,112.443 66.991,114.771 68.667,112.575 z M 145.333,102.575 C 144.258,101.695 139.46,101.135 139.333,103.242 C 142.137,103.245 144.907,103.219 145.333,102.575 z M 112.667,145.908 C 111.431,149.457 105.831,150.325 102.667,152.575 C 98.538,155.513 96.571,160.369 94.667,161.908 C 85.118,169.626 72.436,153.959 62,160.575 C 63.994,161.025 62.432,165.032 64.667,165.242 C 67.169,163.35 71.304,160.246 76.667,162.575 C 75.381,164.41 78.415,165.985 78,163.908 C 82.862,168.53 91.439,165.481 92,174.575 C 92.785,174.679 93.893,174.46 94,175.242 C 93.718,178.449 96.217,185.795 100,189.909 C 100.08,180.341 93.267,173.762 93.333,166.576 C 98.551,162.069 105.946,168.502 106,155.243 C 106.747,155.175 107.04,156.213 107.333,155.243 C 110.406,145.087 122.892,151.41 131.333,150.576 C 129.512,152.417 132.309,151.201 132.666,152.576 C 128.703,161.89 133.046,168.067 130.666,177.243 C 133.696,177.263 130.751,179.202 130.666,179.91 C 130.663,179.934 132.032,180.724 131.999,181.243 C 131.711,185.875 131.057,194.91 129.332,196.576 C 115.252,195.11 109.936,201.396 102.665,194.576 C 102.402,193.429 103.655,192.867 102.665,192.576 C 101.385,195.486 101.459,188.153 100.665,190.576 C 102.558,196.001 101.74,200.474 97.998,203.243 C 103.519,199.456 125.708,198.798 127.331,197.243 C 129.337,198.641 131.408,199.528 131.331,201.91 C 131.063,210.217 131.034,225.054 129.998,237.91 C 127.655,240.514 126.356,238.479 124.665,240.576 C 126.293,241.241 126.085,240.798 128.665,241.243 C 126.844,243.084 129.642,241.869 129.998,243.243 C 129.817,247.643 131.438,252.437 130.665,259.243 C 130.095,264.262 129.875,270.629 127.998,274.576 C 130.234,276.444 129.011,281.429 127.331,282.576 C 124.771,281.792 122.273,279.882 118.664,281.243 C 129.427,281.406 128.245,290.909 129.997,293.91 C 128.031,305.37 127.564,317.36 129.33,330.576 C 134.031,317.949 128.528,311.257 129.997,298.576 C 130.66,292.852 129.674,287.512 133.997,284.576 C 133.627,284.578 133.24,284.036 133.997,283.91 C 140.203,283.237 144.45,282.097 147.997,281.91 C 153.831,287.579 151.327,300.057 157.997,307.243 C 156.623,295.979 146.503,282.498 161.997,277.243 C 162.064,277.991 161.028,278.281 161.997,278.576 C 169.892,271.851 184.9,275.347 185.997,287.243 C 187.881,286.692 187.725,288.182 189.33,287.91 C 188.998,282.637 184.63,281.919 185.997,276.576 C 181.095,271.305 167.836,274.697 168.664,261.91 C 167.879,261.806 166.771,262.024 166.664,261.243 C 167.628,261.083 168.214,255.757 165.997,256.576 C 163.861,260.968 170.834,270.098 165.33,275.243 C 153.5,277.567 142.744,281.002 132.663,282.576 C 132.348,279.778 132.141,282.106 130.663,279.91 C 131.049,273.966 131.46,267.743 130.663,261.243 C 134.278,259.16 130.866,244.793 134.663,241.91 C 138.056,240.865 153.9,245.29 157.33,243.243 C 148.132,240.552 137.452,242.375 132.663,236.576 C 131.83,218.173 133.94,205.765 133.996,197.91 C 134.665,197.907 134.789,198.45 135.329,198.576 C 131.433,191.64 135.621,187.858 132.662,182.576 C 132.732,172.269 134.142,163.852 133.995,155.909 C 133.953,153.616 133.859,151.814 136.662,150.576 C 144.666,147.038 164.954,146.89 163.995,162.576 C 168.318,163.065 172.51,161.578 172.662,159.909 C 172.803,160.715 173.401,160.319 173.995,159.909 C 173.578,161.208 177.65,163.049 177.995,165.909 C 177.924,165.314 176.19,172.213 175.328,173.909 C 174.15,176.23 171.459,176.838 170.662,179.242 C 169.584,182.494 169.74,183.325 168.662,185.909 C 166.879,190.181 164.167,196.578 161.995,199.242 C 154.268,200.068 147.322,198.096 140.662,196.575 C 150.494,204.626 157.849,196.277 164.662,203.242 C 164.213,202.784 165.38,205.039 165.995,205.909 C 167.617,208.204 168.897,215.511 171.328,217.909 C 173.422,219.974 174.492,220.019 175.995,221.909 C 176.298,214.886 170.079,210.392 167.328,205.242 C 163.102,197.33 167.862,192.188 172.662,184.575 C 170.63,183.76 173.637,182.031 171.995,181.242 C 174.946,181.531 173.551,179.834 173.328,178.575 C 173.995,178.575 174.662,178.575 175.328,178.575 C 174.462,174.947 177.579,172.176 179.328,169.242 C 182.059,169.735 189.154,168.857 193.328,168.575 C 197.823,159.79 205.352,168.999 209.995,168.575 C 208.724,168.507 210.526,166.091 210.662,165.242 C 202.433,161.171 194.202,163.819 187.995,165.909 C 187.928,165.161 188.964,164.871 187.995,164.576 C 182.863,167.515 178.291,163.302 174.662,159.909 C 170.352,155.882 162.203,150.1 153.995,146.576 C 160.155,135.951 157.74,116.524 167.328,107.243 C 166.522,107.102 166.919,106.503 167.328,105.91 C 161.653,104.305 153.903,104.322 149.995,104.577 C 153.45,105.788 157.319,106.586 161.995,106.577 C 160.332,118.397 155.686,132.867 153.995,143.91 C 153.993,143.54 154.535,143.154 154.662,143.91 C 149.538,149.107 142.968,147.376 135.995,148.577 C 132.748,141.285 136.452,135.261 134.662,128.577 C 133.097,133 133.035,136.612 132.662,146.577 C 124.716,151.069 123.322,148.785 115.329,147.91 C 112.911,143.177 113.787,140.417 110.662,136.577 C 109.651,139.721 113.848,142.517 112.667,145.908 z M 80,220.574 C 80.194,220.497 79.03,219.178 78.667,219.241 C 75.771,219.744 73.314,220.24 70,220.574 C 62.784,221.302 54.681,223.282 48.667,230.574 C 63.552,223.799 87.054,213.973 92,233.241 C 92.667,233.241 93.333,233.241 94,233.241 C 93.938,235.646 95.706,238.611 97.333,239.908 C 97.184,237.971 96.904,234.651 96.666,233.908 C 95.542,230.396 92.068,229.495 89.999,225.908 C 89.848,225.645 89.528,226.204 88.666,225.241 C 85.988,222.249 85.451,218.776 86.666,217.241 C 88.285,215.196 89.239,215.212 89.999,213.908 C 90.327,213.346 92.493,213.276 93.332,212.574 C 96.105,210.257 94.124,206.461 97.999,205.908 C 96.785,205.929 99.27,202.554 96.666,202.574 C 96.656,203.676 94.817,202.947 94.666,203.908 C 93.193,206.064 89.059,207.995 88.666,212.574 C 85.463,213.343 84.854,218.624 80,220.574 z M 124.667,239.241 C 115.64,240.193 110.512,240.81 101.334,243.241 C 99.438,241.904 100.503,240.142 98.667,239.908 C 96.832,240.939 98.603,243.909 99.334,244.574 C 97.63,242.811 98.011,245.487 98.001,247.241 C 97.216,247.345 96.108,247.127 96.001,247.908 C 95.114,254.971 89.662,268.212 78.668,270.574 C 79.423,274.398 75.755,277.647 73.335,282.574 C 76.053,282.721 78.086,279.812 77.335,278.574 C 83.147,273.678 95.925,271.975 100.668,272.574 C 98.365,271.703 96.299,271.319 93.335,271.241 C 92.394,268.361 91.757,266.082 92.002,263.908 C 92.264,261.572 95.091,260.454 94.669,260.574 C 95.78,260.257 95.788,251.161 98.002,247.241 C 105.913,243.767 115.289,242.403 124.669,240.574 C 123.861,240.434 124.257,239.835 124.667,239.241 z M 167.333,240.574 C 163.498,245.394 172.029,235.158 175.333,234.574 C 179.014,220.484 185.686,226.599 199.333,224.574 C 194.069,222.595 187.932,224.541 182.667,223.908 C 179.533,223.531 178.476,221.096 176,222.574 C 176.963,224.162 177.011,224.211 178,224.574 C 174.956,232.915 169.712,231.268 167.333,240.574 z M 22.667,104.575 C 21.518,104.708 19.15,106.546 18,108.575 C 19.176,107.277 23.806,105.975 22.667,104.575 z M 82,112.575 C 82.068,115.029 77.326,116.832 74.667,119.242 C 75.483,126.171 70.492,127.776 74.667,130.575 C 74.126,118.188 85.917,111.745 94.667,109.242 C 91.112,108.186 86.978,110.7 82,112.575 z M 110,128.575 C 108.478,118.193 100.801,112.359 106,105.242 C 102.386,105.278 98.063,107.146 94.667,109.242 C 95.074,109.28 95.457,109.342 95.334,109.909 C 94.964,109.907 94.577,110.449 95.334,110.576 C 100.549,106.117 105.193,117.71 104.001,119.909 C 110.115,123.217 105.54,127.216 110,128.575 z M 33.333,107.908 C 34.106,108.468 35.12,108.787 36.666,108.575 C 36.666,107.686 36.666,106.797 36.666,105.908 C 35.697,106.273 33.221,105.129 33.333,106.575 C 34.139,106.715 33.743,107.314 33.333,107.908 z M 188.667,113.241 C 190.741,114.96 193.04,119.958 195.333,119.241 C 192.603,116.896 194.225,116.444 192.667,112.574 C 188.204,110.807 178.277,110.972 174.667,110.574 C 178.778,112.019 184.388,111.964 188.667,113.241 z M 220.667,121.241 C 219.506,116.845 217.955,114.888 216,112.574 C 215.84,113.525 214.902,113.699 214.667,114.574 C 218.43,116.217 218.167,119.544 220.667,121.241 z M 52.667,124.575 C 51.883,124.679 50.775,124.46 50.667,125.242 C 51.18,128.3 45.191,137.85 48,140.575 C 50.621,136.414 50.917,134.335 54,132.575 C 49.314,126.682 61.428,119.398 57.333,113.908 C 56.096,117.296 51.385,121.175 52.667,124.575 z M 54,137.241 C 54.365,138.21 53.221,140.687 54.667,140.574 C 59.34,138.813 67.672,129.863 61.334,121.907 C 58.667,127.182 65.281,134.588 54,137.241 z M 220.667,139.908 C 212.698,136.036 211.172,131.54 212.667,121.908 C 207.736,126.806 213.395,142.173 220.667,139.908 z M 226.667,137.241 C 225.473,134.854 225.124,126.588 220.667,122.574 C 221.244,126.583 220.902,127.702 220.667,131.907 C 224.91,133.204 224.301,136.59 226.667,137.241 z M 42.667,147.908 C 42.423,149.389 42.447,155.895 40,155.241 C 40.679,161.039 36.649,162.142 38.667,164.574 C 38.808,163.768 39.407,164.164 40,164.574 C 46.365,156.706 43.95,152.063 45.333,143.241 C 44.495,144.847 44.908,147.705 42.667,147.908 z M 51.333,147.241 C 48.822,146.897 48.297,146.398 47.333,148.574 C 51.088,148.654 48.375,157.044 50,157.241 C 50.16,155.991 51.098,157.619 51.333,156.574 C 51.73,154.186 52.484,151.519 52.666,148.574 C 51.505,147.319 50.099,149.486 51.333,147.241 z M 221.333,161.908 C 221.868,161.024 224.733,170.929 228.667,167.241 C 220.73,165.283 219.739,154.163 224,148.574 C 218.558,149.504 220.514,157.291 221.333,161.908 z M 234,167.241 C 232.15,161.241 233.019,151.245 229.333,149.241 C 226.827,154.551 229.74,163.642 234,167.241 z M 44.667,165.241 C 49.053,165.849 48.752,161.77 50,159.241 C 46.818,160.14 46.282,161.757 44.667,165.241 z M 34.667,170.575 C 35.993,171.026 34.008,172.79 35.334,173.242 C 36.8,171.285 36.189,169.723 38.667,167.909 C 37.147,167.723 36.161,168.07 36,169.242 C 37.806,170.617 34.476,169.824 34.667,170.575 z M 56.667,181.241 C 56.138,182.64 53.254,198.368 50.667,200.574 C 47.864,202.966 48.172,206.143 47.334,208.574 C 49.608,209.213 54.247,209.96 52.001,206.574 C 52.668,206.574 53.334,206.574 54.001,206.574 C 57.168,197.664 57.738,189.62 59.334,181.241 C 59.849,178.536 62.478,174.55 61.334,169.908 C 58.467,172.865 58.629,176.055 56.667,181.241 z M 40,173.241 C 46.33,177.067 39.775,182.883 42,187.241 C 39.692,187.845 35.38,189.924 37.333,192.574 C 38.677,190.1 39.939,191.664 42,189.907 C 44.697,188.427 45.936,174.557 42.667,172.574 C 42.952,174.445 40.181,170.904 40,173.241 z M 30,183.241 C 32.125,185.709 26.661,192.619 30,195.908 C 29.702,192.926 31.766,192.877 32,187.908 C 37.433,184.939 34.366,177.982 34.667,173.908 C 34.507,175.158 33.569,173.53 33.334,174.575 C 34.819,176.445 32.429,180.309 30,183.241 z M 228,179.908 C 226.336,185.48 224.37,191.175 226.667,197.241 C 227.451,197.345 228.559,197.127 228.667,197.908 C 228.26,197.945 227.877,198.008 228,198.574 C 229.333,198.574 230.667,198.574 232,198.574 C 231.585,196.546 230.52,195.166 228,195.241 C 226.086,190.704 227.494,188.253 228.667,181.908 C 229.249,180.882 233.776,180.422 231.333,178.575 C 231.134,179.568 228.529,177.853 228,179.908 z M 238.667,200.574 C 239.061,196.761 238.9,189.637 236.667,183.907 C 234.978,190.049 237.599,196.2 238.667,200.574 z M 215.333,207.908 C 217.246,203.102 213.71,199.157 212,195.241 C 211.571,194.258 210.61,189.91 209.333,190.574 C 210.843,196.413 207.803,205.834 215.333,207.908 z M 30.667,199.908 C 29.861,199.766 30.257,199.168 30.667,198.574 C 24.991,200.133 27.09,206.751 26.667,209.241 C 25.414,216.618 25.798,223.335 25.334,230.574 C 30.225,230.92 25.163,221.094 29.334,219.241 C 27.331,214.759 27.245,205.67 30.001,199.908 C 29.998,200.278 30.54,200.665 30.667,199.908 z M 30.667,209.241 C 33.087,209.265 35.93,208.867 36.667,210.574 C 37.996,217.485 35.202,223.081 30.667,225.241 C 32.323,226.817 34.591,225.247 36.667,225.241 C 38.689,218.326 43.237,206.102 32,205.908 C 30.524,207.457 31.411,207.692 30.667,209.241 z M 230,213.241 C 231.556,211.464 233.026,209.601 235.333,208.574 C 231.895,207.388 229.534,209.405 228,211.908 C 228.784,212.012 229.893,211.793 230,212.574 C 229.63,212.572 229.243,213.114 230,213.241 z M 240,217.241 C 239.252,217.308 238.962,216.272 238.667,217.241 C 239.928,218.349 238.441,219.031 238,221.241 C 241.206,223.548 238.676,227.203 241.333,228.574 C 240.895,223.077 243.031,213.481 240,211.908 C 240.915,213.093 238.807,214.883 240,217.241 z M 235.333,231.241 C 234.87,227.98 230.014,228.109 228,223.908 C 228.802,222.659 228.802,220.49 228,219.241 C 225.615,222.525 227.993,224.624 226.667,227.908 C 230.348,228.347 233.217,233.197 235.333,231.241 z M 216,230.574 C 213.634,227.704 211.088,228.698 210,225.241 C 207.295,226.7 204.773,222.514 202.667,225.241 C 206.117,224.756 208.62,229.486 208.667,226.574 C 210.727,227.843 214.39,233.125 216,230.574 z M 34,269.241 C 29.511,265.64 35.92,251.17 30,248.574 C 27.097,240.948 29.243,237.37 28.667,231.908 C 28.526,232.714 27.927,232.317 27.334,231.908 C 27.693,234.266 26.255,234.829 25.334,235.908 C 26.939,245.239 28.037,264.138 32.667,271.241 C 35.812,271.734 35.33,269.083 34.667,268.574 C 34.629,268.981 34.567,269.364 34,269.241 z M 41.333,243.241 C 41.312,243.86 40.708,243.053 40,241.241 C 38.771,238.093 37.532,234.497 32,236.574 C 32.365,237.543 31.221,240.02 32.667,239.908 C 41.826,243.139 37.361,248.139 40,259.908 C 38.562,261.582 35.88,262.011 34.667,263.908 C 37.347,263.995 35.042,265.664 40,265.241 C 39.964,263.994 40.513,263.83 41.333,264.574 C 43.328,256.982 41.127,249.212 41.333,243.241 z M 240,243.241 C 238.358,242.452 241.365,240.722 239.333,239.908 C 239.192,240.714 238.594,240.317 238,239.908 C 236.972,242.324 241.653,244.443 240,243.241 z M 165.333,243.241 C 165.192,244.047 164.594,243.651 164,243.241 C 163.088,246.137 160.629,242.574 158.667,245.241 C 161.432,245.815 164.612,249.118 164,252.574 C 166.614,251.148 164.483,257.764 166,255.241 C 165.354,250.812 166.543,250.792 164,247.908 C 164.539,246.669 164.862,245.214 166,244.574 C 164.75,244.415 166.378,243.477 165.333,243.241 z M 228.667,267.241 C 225.403,265.105 222.527,256.484 226.667,254.574 C 224.206,251.303 226.4,247.428 230.667,245.908 C 232.476,247.056 234.423,248.862 235.333,245.908 C 230.207,244.465 227.722,243.66 224,247.241 C 223.596,257.741 219.659,265.788 228.667,267.241 z M 238,249.908 C 234.67,256.727 236.393,262.202 235.333,269.241 C 235.475,268.435 236.073,268.831 236.667,269.241 C 235.652,264.594 242.377,253.261 238,249.908 z M 58,276.574 C 56.116,273.126 53.611,270.297 50,268.574 C 48.164,268.727 46.608,269.663 45.333,271.908 C 46.538,272.555 52.32,271.321 52.666,272.574 C 51.23,274.065 57.176,279.377 58,276.574 z M 231.333,273.908 C 231.703,273.906 232.09,274.448 231.333,274.574 C 231.296,274.168 231.233,273.785 230.667,273.908 C 230.667,274.352 230.667,274.797 230.667,275.241 C 230.704,275.647 230.767,276.03 231.333,275.908 C 232.507,275.967 233.978,274.13 235.333,272.574 C 234.008,272.123 235.992,270.359 234.667,269.908 C 235.041,272.266 232.635,271.793 231.333,273.908 z M 38,272.574 C 36.839,272.625 35.927,272.426 35.333,271.908 C 33.523,278.117 42.384,288.386 44.666,291.241 C 47.912,295.303 48.714,298.942 52.666,299.241 C 54.598,297.474 49.839,294.748 49.333,293.241 C 48.07,289.485 48.949,283.615 42.666,284.574 C 43.095,280.552 35.997,277.551 38,272.574 z M 104.667,300.574 C 102.165,300.36 102.836,303.099 101.334,306.574 C 106.538,300.484 108.617,292.196 112.001,283.241 C 114.343,282.417 114.243,279.146 117.334,279.908 C 112.513,278.358 106.928,272.113 104.001,274.574 C 117.782,279.248 106.197,290.651 104.001,298.574 C 104.725,298.734 105.602,299.672 104.668,299.908 C 104.407,298.885 103.867,299.81 104.667,300.574 z M 216,273.241 C 213.805,275.648 206.614,280.101 211.333,283.241 C 210.93,279.236 213.976,278.885 216,275.908 C 217.111,275.908 218.223,275.908 219.333,275.908 C 219.571,277.203 222.268,280.869 223.333,280.574 C 224.054,279.14 219.871,274.015 216,273.241 z M 228.667,277.908 C 226.647,283.134 226.808,286.708 222,290.574 C 220.751,290.217 218.404,291.256 216,292.574 C 216.658,300.612 213.334,300.102 209.333,305.241 C 211.817,307.729 217.901,301.171 217.333,298.574 C 219.278,298.761 219.625,298.414 218.667,297.241 C 224.587,294.529 224.421,286.543 228.667,285.241 C 227.035,281.16 232.591,282.11 228.667,277.908 z M 52,286.574 C 52.806,286.716 52.41,287.314 52,287.908 C 53.111,287.908 54.222,287.908 55.333,287.908 C 54.649,285.202 58.184,285.725 59.333,283.241 C 57.462,283.526 61.004,280.756 58.666,280.574 C 58.525,281.38 57.926,280.984 57.333,280.574 C 56.072,283.091 54.629,285.426 52,286.574 z M 211.333,297.908 C 210.906,295.386 208.538,290.883 208.667,288.574 C 208,288.574 207.333,288.574 206.667,288.574 C 207.218,292.449 209.07,294.446 208,297.241 C 210.094,296.132 210.725,299.721 211.333,297.908 z M 75.333,292.574 C 74.813,292.428 74.558,292.016 74.666,291.241 C 68.33,289.627 63.02,290.81 63.999,296.574 C 64.159,295.324 65.097,296.953 65.332,295.908 C 64.184,294.93 68.041,293.322 68.665,291.908 C 71.6,291.293 74.02,295.678 75.333,292.574 z M 71.333,305.908 C 76.336,308.515 77.109,302.716 79.333,301.908 C 78.502,299.413 80.336,295.736 75.333,293.241 C 78.102,296.238 75.42,307.303 72.666,303.908 C 72.507,304.859 71.569,305.032 71.333,305.908 z M 186.667,307.241 C 187.09,309.484 187.14,312.101 188.667,313.241 C 190.013,308.303 190.238,304.208 190.667,301.241 C 193.246,301.979 193.038,298.885 194.667,300.574 C 189.914,296.044 188.657,303.932 186.667,307.241 z M 66,312.574 C 64.12,306.9 58.035,305.017 54.667,299.241 C 54.145,299.704 53.184,302.961 54.667,303.241 C 57.536,304.162 62.791,311.994 66,312.574 z M 201.333,305.241 C 205.457,304.313 200.629,301.374 201.333,299.241 C 200.865,300.098 197.501,298.75 197.333,299.908 C 199.308,300.757 202.672,301.985 201.333,305.241 z M 81.333,310.574 C 84.968,308.595 85.813,306.799 88.666,305.241 C 88.853,303.721 88.505,302.735 87.333,302.574 C 84.798,305.408 79.668,307.022 81.333,310.574 z M 88.667,315.241 C 92.145,316.156 91.898,311.705 94,309.908 C 93.252,309.766 92.962,309.168 92.667,308.574 C 90.638,308.545 90.075,309.982 88.667,310.574 C 88.44,312.642 90.21,313.76 88.667,315.241 z M 172,319.241 C 173.261,319.092 173.471,319.992 174.667,319.908 C 175.002,315.148 173.265,314.491 172.667,309.908 C 172,309.908 171.333,309.908 170.667,309.908 C 171.044,312.799 170.805,314.863 172.667,315.241 C 170.982,316.502 173.281,317.578 172,319.241 z M 188.667,321.241 C 194.358,318.645 202.057,315.072 205.333,309.908 C 200.167,311.567 197.426,313.796 193.333,313.908 C 194.045,318.191 187.972,319.19 188.667,321.241 z M 109.333,316.574 C 110.309,318.946 107.19,320.569 108.666,321.241 C 109.118,319.915 110.881,321.9 111.333,320.574 C 111.328,313.403 119.541,317.02 124.666,319.908 C 125.514,319.119 124.949,317.389 123.999,316.574 C 120.837,317.72 117.764,313.044 114.666,311.908 C 113.491,313.283 112.602,312.491 111.999,313.241 C 112.583,313.229 111.656,317.289 109.333,316.574 z M 74.667,315.908 C 71.191,315.606 71.207,311.812 66.667,312.574 C 67.708,315.287 73.431,319.466 74.667,315.908 z M 133.333,319.908 C 135.638,319.99 136.475,318.605 138,317.908 C 139.38,311.448 147.198,318.894 148,323.241 C 148.373,321.735 149.04,324.05 150,322.574 C 148.77,316.885 145.011,317.816 143.333,312.574 C 138.037,312.578 133.895,313.732 133.333,319.908 z M 164,312.574 C 163.981,315.364 163.283,321.16 166,320.574 C 165.594,320.537 165.211,320.474 165.333,319.908 C 166.754,319.387 167.492,316.793 166.667,315.241 C 164.73,316.678 166.383,312.782 165.333,312.574 C 165.192,313.38 164.594,312.984 164,312.574 z M 158,323.908 C 159.9,319.979 159.868,316.103 159.333,313.241 C 157.592,312.951 157.233,321.843 158,323.908 z M 98.667,321.908 C 100.522,319.506 99.479,318.31 101.334,315.908 C 99.796,316.112 100.593,313.981 99.334,313.908 C 99.039,316.086 96.686,319.666 98.667,321.908 z M 76.667,320.574 C 79.128,322.287 81.886,324.65 84,323.241 C 84,323.908 84,324.574 84,325.241 C 88.831,324.55 97.062,330.7 100.667,326.574 C 89.9,328.355 87.284,317.864 76.667,320.574 z M 177.333,325.908 C 166.433,325.192 164.732,326.009 158,331.241 C 162.462,332.589 166.199,327.901 166,330.574 C 166.047,327.732 171.722,330.518 172.667,328.574 C 171.297,328.55 182.943,325.328 179.333,323.241 C 178.996,325.197 178.073,323.622 177.333,325.908 z M 117.333,327.241 C 114.82,327.032 110.83,329.587 108,329.908 C 106.746,330.05 104.095,326.614 104.667,330.574 C 112.624,332.486 113.76,332.66 125.334,333.908 C 125.53,332.549 127.138,332.6 127.334,331.241 C 122.877,332.037 120.924,327.54 117.333,327.241 z M 132,333.241 C 140.077,336.722 145.592,334.176 153.333,332.574 C 153.333,331.685 153.333,330.797 153.333,329.908 C 146.029,336.307 139.61,325.316 132,333.241 z M 40,339.908 C 44.08,338.38 48.855,336.068 52.667,335.241 C 51.417,335.081 53.045,334.143 52,333.908 C 49.066,337.363 42.291,334.568 40,339.908 z M 124.667,338.574 C 126.371,338.5 127,337.352 128,336.574 C 125.795,335.573 123.09,335.794 124.667,338.574 z M 53.333,344.574 C 52.369,344.712 51.844,345.784 49.333,345.908 C 50.176,349.856 44.261,347.325 46.666,351.241 C 46.807,350.435 47.406,350.831 47.999,351.241 C 47.645,347.313 53.696,346.292 53.333,344.574 z M 60,350.574 C 60.952,350.734 61.125,351.673 62,351.908 C 61.507,348.97 64.158,349.177 64.667,347.241 C 61.368,346.609 62.442,350.35 60,350.574 z "
   clip-rule="evenodd"
   style="fill:#5b5600;fill-rule:evenodd" />

	<path
   id="path3875"
   d="M 116,25.241 C 119.228,26.04 116.451,31.562 115.333,35.908 C 114.739,35.498 114.141,35.102 114,35.908 C 112.298,33.637 115.943,28.989 116,25.241 z "
   clip-rule="evenodd"
   style="fill:#f8ed9b;fill-rule:evenodd" />

	<path
   id="path3877"
   d="M 124.667,31.908 C 125.595,33.647 127.113,34.796 126.667,37.908 C 125.222,38.021 126.365,35.544 126,34.575 C 125.433,34.452 125.371,34.835 125.333,35.242 C 125.333,34.414 123.674,33.302 124.667,31.908 z "
   clip-rule="evenodd"
   style="fill:#f8ed9b;fill-rule:evenodd" />

	<path
   id="path3879"
   d="M 136.667,33.908 C 137.391,34.073 137.12,35.234 138,35.241 C 137.048,36.733 135.86,37.99 134.667,39.241 C 133.031,37.5 138.871,36.534 136.667,33.908 z "
   clip-rule="evenodd"
   style="fill:#f8ed9b;fill-rule:evenodd" />

	<path
   id="path3881"
   d="M 140,43.241 C 140.891,43.906 141.31,45.043 142.667,45.241 C 142.544,47.418 146.222,53.97 144,56.574 C 141.313,56.687 138.858,57.028 138,57.241 C 138.057,51.701 139.438,48.531 140,43.241 z "
   clip-rule="evenodd"
   style="fill:#f8ed9b;fill-rule:evenodd" />

	<path
   id="path3883"
   d="M 121.333,44.575 C 121.896,46.175 121.896,48.974 121.333,50.575 C 123.638,52.529 123.026,53.289 123.333,57.242 C 115.153,61.952 116.101,49.515 120,44.575 C 120.593,44.984 121.192,45.38 121.333,44.575 z "
   clip-rule="evenodd"
   style="fill:#f8ed9b;fill-rule:evenodd" />

	<path
   id="path3885"
   d="M 128,79.908 C 129.251,78.637 127.604,78.702 128,76.575 C 134.698,79.732 146.499,74.954 154,78.575 C 154.763,77.802 159.104,76.854 158,79.908 C 140.812,80.22 146.2,81.542 128,79.908 z "
   clip-rule="evenodd"
   style="fill:#f8ed9b;fill-rule:evenodd" />

	<path
   id="path3887"
   d="M 161.333,78.575 C 171.786,77.761 186.269,82.368 191.333,89.908 C 187.149,89.904 186.05,83.422 177.333,85.241 C 173.621,83.942 171.842,80.817 168.667,79.908 C 166.266,79.22 162.039,82.182 161.333,78.575 z "
   clip-rule="evenodd"
   style="fill:#f8ed9b;fill-rule:evenodd" />

	<path
   id="path3889"
   d="M 102.667,88.575 C 103.424,88.701 103.037,89.243 102.667,89.242 C 103.289,92.974 103.139,93.542 103.334,97.909 C 100.259,94.596 102.385,94.165 101.334,89.242 C 102.108,89.35 102.52,89.094 102.667,88.575 z "
   clip-rule="evenodd"
   style="fill:#f8ed9b;fill-rule:evenodd" />

	<path
   id="path3891"
   d="M 168,89.241 C 168.235,88.196 169.174,89.824 169.333,88.574 C 170.806,90.679 168.23,93.151 169.333,95.907 C 165.634,95.91 169.209,92.784 166.667,91.907 C 166.476,90.732 169.806,89.844 168,89.241 z "
   clip-rule="evenodd"
   style="fill:#f8ed9b;fill-rule:evenodd" />

	<path
   id="path3893"
   d="M 144.667,97.908 C 144.471,100.231 142.863,97.852 142.667,99.241 C 142.264,96.376 141.712,93.433 142,91.908 C 142.936,86.945 144.111,94.512 144.667,97.908 z "
   clip-rule="evenodd"
   style="fill:#f8ed9b;fill-rule:evenodd" />

	<path
   id="path3895"
   d="M 176,89.908 C 176.837,92.444 177.047,98.205 175.333,99.908 C 175.319,97.295 174.183,92.561 176,89.908 z "
   clip-rule="evenodd"
   style="fill:#f8ed9b;fill-rule:evenodd" />

	<path
   id="path3897"
   d="M 182.667,91.908 C 182.902,90.863 183.84,92.492 184,91.241 C 186.945,94.816 184.991,94.783 184.667,99.908 C 182.502,98.984 182.498,101.766 181.333,104.575 C 178.329,99.993 185.755,94.444 182.667,91.908 z "
   clip-rule="evenodd"
   style="fill:#f8ed9b;fill-rule:evenodd" />

	<path
   id="path3899"
   d="M 210,101.908 C 209.89,105.056 213.024,105.697 212.667,107.241 C 211.333,108.314 208.937,104.778 207.333,103.908 C 207.336,105.918 203.364,104.082 202,101.241 C 201.405,101.347 202.539,106.105 200,103.908 C 200.955,104.884 200.511,106.021 198.667,105.908 C 198.606,107.727 199.777,107.25 198.667,108.575 C 199.111,108.575 199.556,108.575 200,108.575 C 201.385,108.404 200.182,105.646 201.333,105.242 C 202.444,105.242 203.556,105.242 204.667,105.242 C 204.326,107.124 203.054,108.074 202.667,109.909 C 201.272,108.725 200.161,110.433 199.333,109.242 C 197.959,109.599 199.174,112.396 197.333,110.575 C 199.187,116.925 205.496,113.397 210.667,110.575 C 212.439,113.837 207.197,115.992 206.667,117.242 C 196.974,117.536 195.791,109.837 190.667,107.909 C 193.473,104.259 192.765,98.612 195.333,95.242 C 195.233,94.009 193.076,94.833 192.667,93.909 C 192.385,92.516 193.124,92.144 193.333,91.242 C 201.848,94.054 203.177,97.584 210,101.908 z "
   clip-rule="evenodd"
   style="fill:#f8ed9b;fill-rule:evenodd" />

	<path
   id="path3901"
   d="M 212,91.241 C 212.736,91.844 212.462,92.732 212,93.908 C 211.406,93.498 210.808,93.102 210.667,93.908 C 209.706,93.757 210.435,91.918 209.333,91.908 C 209.515,89.57 212.285,93.112 212,91.241 z "
   clip-rule="evenodd"
   style="fill:#f8ed9b;fill-rule:evenodd" />

	<path
   id="path3903"
   d="M 57.333,93.241 C 58.022,89.738 59.977,95.101 60.666,93.241 C 61.233,93.118 61.295,93.501 61.333,93.908 C 61.333,94.353 61.333,94.797 61.333,95.241 C 59.379,95.195 59.873,92.702 57.333,93.241 z "
   clip-rule="evenodd"
   style="fill:#f8ed9b;fill-rule:evenodd" />

	<path
   id="path3905"
   d="M 69.333,105.241 C 62.177,104.657 62.415,109.803 60,112.574 C 57.794,109.617 62.532,106.269 64.667,103.907 C 68.153,100.051 72.38,93.42 77.334,94.574 C 71.459,97.64 65.725,105.109 74.001,108.574 C 73.591,109.167 73.195,109.766 74.001,109.907 C 72.488,110.097 68.499,108.085 69.333,105.241 z "
   clip-rule="evenodd"
   style="fill:#f8ed9b;fill-rule:evenodd" />

	<path
   id="path3907"
   d="M 252.667,94.575 C 253.627,96.05 254.293,93.736 254.667,95.242 C 255.345,95.002 251.536,96.815 250,96.575 C 249.715,94.733 252.485,95.949 252.667,94.575 z "
   clip-rule="evenodd"
   style="fill:#f8ed9b;fill-rule:evenodd" />

	<path
   id="path3909"
   d="M 15.333,97.241 C 13.908,94.875 19.91,95.114 21.333,96.574 C 21.9,96.697 21.962,96.314 22,95.907 C 22.15,98.284 16.844,95.918 15.333,97.241 z "
   clip-rule="evenodd"
   style="fill:#f8ed9b;fill-rule:evenodd" />

	<path
   id="path3911"
   d="M 20.667,100.575 C 18.938,102.174 15.467,105.512 12.667,103.242 C 15.996,101.84 18.355,100.674 20.667,100.575 z "
   clip-rule="evenodd"
   style="fill:#f8ed9b;fill-rule:evenodd" />

	<path
   id="path3913"
   d="M 134.667,124.575 C 131.716,120.783 133.751,114.704 132.667,106.575 C 128.394,98.565 119.948,104.908 111.334,105.908 C 112.563,101.49 121.026,103.476 127.334,99.908 C 129.857,102.052 132.557,104.018 138.001,103.241 C 137.591,103.834 137.195,104.433 138.001,104.574 C 134.444,108.103 135.386,120.744 134.667,124.575 z "
   clip-rule="evenodd"
   style="fill:#f8ed9b;fill-rule:evenodd" />

	<path
   id="path3915"
   d="M 139.333,103.241 C 139.46,101.135 144.258,101.695 145.333,102.574 C 144.907,103.219 142.137,103.245 139.333,103.241 z "
   clip-rule="evenodd"
   style="fill:#f8ed9b;fill-rule:evenodd" />

	<path
   id="path3917"
   d="M 110.667,136.575 C 113.792,140.415 112.916,143.175 115.334,147.908 C 123.327,148.783 124.721,151.067 132.667,146.575 C 133.04,136.61 133.102,132.998 134.667,128.575 C 136.458,135.259 132.753,141.283 136,148.575 C 142.973,147.374 149.543,149.105 154.667,143.908 C 154.54,143.152 153.998,143.538 154,143.908 C 155.691,132.865 160.337,118.395 162,106.575 C 157.324,106.584 153.455,105.786 150,104.575 C 153.908,104.32 161.658,104.303 167.333,105.908 C 166.924,106.502 166.527,107.1 167.333,107.241 C 157.745,116.522 160.16,135.95 154,146.574 C 162.208,150.098 170.357,155.88 174.667,159.907 C 178.296,163.3 182.868,167.513 188,164.574 C 188.969,164.869 187.933,165.159 188,165.907 C 194.207,163.818 202.438,161.169 210.667,165.24 C 210.531,166.089 208.729,168.506 210,168.573 C 205.357,168.997 197.828,159.788 193.333,168.573 C 189.159,168.855 182.064,169.733 179.333,169.24 C 177.584,172.174 174.467,174.946 175.333,178.573 C 174.667,178.573 174,178.573 173.333,178.573 C 173.556,179.831 174.951,181.528 172,181.24 C 173.642,182.029 170.635,183.759 172.667,184.573 C 167.867,192.185 163.107,197.327 167.333,205.24 C 170.084,210.39 176.303,214.884 176,221.907 C 174.497,220.017 173.427,219.972 171.333,217.907 C 168.902,215.509 167.622,208.202 166,205.907 C 165.385,205.037 164.218,202.782 164.667,203.24 C 157.854,196.275 150.499,204.624 140.667,196.573 C 147.327,198.094 154.273,200.066 162,199.24 C 164.172,196.576 166.884,190.178 168.667,185.907 C 169.745,183.324 169.589,182.493 170.667,179.24 C 171.464,176.835 174.155,176.227 175.333,173.907 C 176.195,172.211 177.929,165.312 178,165.907 C 177.655,163.047 173.583,161.206 174,159.907 C 173.406,160.317 172.808,160.713 172.667,159.907 C 172.515,161.576 168.323,163.063 164,162.574 C 164.959,146.888 144.671,147.036 136.667,150.574 C 133.865,151.812 133.958,153.614 134,155.907 C 134.146,163.85 132.736,172.267 132.667,182.574 C 135.626,187.856 131.438,191.637 135.334,198.574 C 134.794,198.448 134.669,197.905 134.001,197.908 C 133.944,205.763 131.834,218.171 132.668,236.574 C 137.457,242.373 148.136,240.55 157.335,243.241 C 153.905,245.288 138.062,240.863 134.668,241.908 C 130.871,244.791 134.283,259.158 130.668,261.241 C 131.465,267.741 131.054,273.964 130.668,279.908 C 132.146,282.104 132.353,279.776 132.668,282.574 C 142.749,281 153.504,277.565 165.335,275.241 C 170.839,270.096 163.866,260.966 166.002,256.574 C 168.219,255.755 167.633,261.081 166.669,261.241 C 166.776,262.022 167.884,261.803 168.669,261.908 C 167.841,274.695 181.1,271.304 186.002,276.574 C 184.635,281.917 189.003,282.635 189.335,287.908 C 187.73,288.18 187.886,286.69 186.002,287.241 C 184.905,275.345 169.897,271.849 162.002,278.574 C 161.033,278.279 162.069,277.989 162.002,277.241 C 146.508,282.496 156.628,295.977 158.002,307.241 C 151.332,300.055 153.836,287.577 148.002,281.908 C 144.455,282.095 140.208,283.235 134.002,283.908 C 133.245,284.034 133.632,284.576 134.002,284.574 C 129.679,287.51 130.665,292.85 130.002,298.574 C 128.533,311.255 134.036,317.947 129.335,330.574 C 127.568,317.358 128.036,305.368 130.002,293.908 C 128.249,290.907 129.432,281.404 118.669,281.241 C 122.278,279.88 124.776,281.79 127.336,282.574 C 129.016,281.427 130.239,276.442 128.003,274.574 C 129.88,270.627 130.099,264.26 130.67,259.241 C 131.444,252.435 129.822,247.641 130.003,243.241 C 129.646,241.867 126.849,243.082 128.67,241.241 C 126.09,240.796 126.298,241.239 124.67,240.574 C 126.362,238.477 127.661,240.512 130.003,237.908 C 131.04,225.052 131.069,210.215 131.336,201.908 C 131.413,199.526 129.342,198.639 127.336,197.241 C 125.713,198.796 103.523,199.454 98.003,203.241 C 101.745,200.472 102.563,196 100.67,190.574 C 101.464,188.151 101.39,195.484 102.67,192.574 C 103.66,192.865 102.407,193.427 102.67,194.574 C 109.941,201.394 115.257,195.107 129.337,196.574 C 131.062,194.908 131.716,185.873 132.004,181.241 C 132.036,180.721 130.668,179.932 130.671,179.908 C 130.756,179.2 133.701,177.262 130.671,177.241 C 133.051,168.066 128.708,161.889 132.671,152.574 C 132.314,151.199 129.517,152.415 131.338,150.574 C 122.897,151.407 110.411,145.085 107.338,155.241 C 107.045,156.211 106.751,155.173 106.005,155.241 C 105.951,168.501 98.557,162.067 93.338,166.574 C 93.271,173.76 100.084,180.339 100.005,189.907 C 96.222,185.793 93.723,178.448 94.005,175.24 C 93.898,174.459 92.79,174.678 92.005,174.573 C 91.444,165.479 82.867,168.528 78.005,163.906 C 78.419,165.983 75.385,164.408 76.672,162.573 C 71.309,160.244 67.174,163.348 64.672,165.24 C 62.437,165.031 64,161.023 62.005,160.573 C 72.44,153.957 85.122,169.624 94.672,161.906 C 96.576,160.367 98.543,155.51 102.672,152.573 C 105.836,150.323 111.436,149.455 112.672,145.906 C 113.848,142.517 109.651,139.721 110.667,136.575 z "
   clip-rule="evenodd"
   style="fill:#f8ed9b;fill-rule:evenodd" />

	<path
   id="path3919"
   d="M 88.667,212.574 C 89.06,207.995 93.194,206.064 94.667,203.908 C 94.818,202.947 96.657,203.676 96.667,202.574 C 99.272,202.553 96.786,205.928 98,205.908 C 94.125,206.461 96.106,210.257 93.333,212.574 C 92.493,213.276 90.328,213.345 90,213.908 C 89.239,215.212 88.285,215.196 86.667,217.241 C 85.452,218.776 85.989,222.249 88.667,225.241 C 89.529,226.204 89.849,225.645 90,225.908 C 92.068,229.495 95.543,230.396 96.667,233.908 C 96.905,234.651 97.185,237.971 97.334,239.908 C 95.706,238.611 93.938,235.646 94.001,233.241 C 93.334,233.241 92.668,233.241 92.001,233.241 C 87.055,213.973 63.552,223.799 48.668,230.574 C 54.682,223.282 62.785,221.302 70.001,220.574 C 73.314,220.24 75.772,219.744 78.668,219.241 C 79.032,219.178 80.195,220.497 80.001,220.574 C 84.854,218.624 85.463,213.343 88.667,212.574 z "
   clip-rule="evenodd"
   style="fill:#f8ed9b;fill-rule:evenodd" />

	<path
   id="path3921"
   d="M 124.667,240.574 C 115.288,242.403 105.911,243.767 98,247.241 C 95.786,251.161 95.777,260.257 94.667,260.574 C 95.089,260.454 92.263,261.572 92,263.908 C 91.756,266.082 92.392,268.361 93.333,271.241 C 96.297,271.319 98.363,271.703 100.666,272.574 C 95.923,271.975 83.145,273.678 77.333,278.574 C 78.084,279.812 76.051,282.721 73.333,282.574 C 75.753,277.647 79.421,274.398 78.666,270.574 C 89.661,268.212 95.113,254.971 95.999,247.908 C 96.106,247.127 97.214,247.346 97.999,247.241 C 98.009,245.487 97.629,242.811 99.332,244.574 C 98.601,243.909 96.83,240.939 98.665,239.908 C 100.501,240.142 99.436,241.904 101.332,243.241 C 110.51,240.81 115.638,240.193 124.665,239.241 C 124.257,239.835 123.861,240.434 124.667,240.574 z "
   clip-rule="evenodd"
   style="fill:#f8ed9b;fill-rule:evenodd" />

	<path
   id="path3923"
   d="M 178,224.574 C 177.011,224.211 176.963,224.162 176,222.574 C 178.476,221.096 179.533,223.531 182.667,223.908 C 187.932,224.541 194.069,222.595 199.333,224.574 C 185.686,226.599 179.014,220.484 175.333,234.574 C 172.029,235.158 163.498,245.394 167.333,240.574 C 169.712,231.268 174.956,232.915 178,224.574 z "
   clip-rule="evenodd"
   style="fill:#f8ed9b;fill-rule:evenodd" />

	<path
   id="path3925"
   d="M 18,108.575 C 19.149,106.546 21.518,104.708 22.667,104.575 C 23.806,105.975 19.176,107.277 18,108.575 z "
   clip-rule="evenodd"
   style="fill:#f8ed9b;fill-rule:evenodd" />

	<path
   id="path3927"
   d="M 94.667,109.241 C 85.917,111.745 74.126,118.188 74.667,130.574 C 70.492,127.774 75.483,126.169 74.667,119.241 C 77.326,116.831 82.069,115.029 82,112.574 C 86.978,110.7 91.112,108.186 94.667,109.241 z "
   clip-rule="evenodd"
   style="fill:#f8ed9b;fill-rule:evenodd" />

	<path
   id="path3929"
   d="M 104,119.908 C 105.192,117.709 100.548,106.116 95.333,110.575 C 94.576,110.448 94.963,109.906 95.333,109.908 C 95.456,109.341 95.073,109.279 94.666,109.241 C 98.063,107.145 102.386,105.277 105.999,105.241 C 100.8,112.358 108.477,118.192 109.999,128.574 C 105.54,127.216 110.115,123.217 104,119.908 z "
   clip-rule="evenodd"
   style="fill:#f8ed9b;fill-rule:evenodd" />

	<path
   id="path3931"
   d="M 174.667,110.575 C 178.277,110.973 188.204,110.808 192.667,112.575 C 194.225,116.445 192.603,116.897 195.333,119.242 C 193.04,119.959 190.741,114.961 188.667,113.242 C 184.388,111.964 178.778,112.019 174.667,110.575 z "
   clip-rule="evenodd"
   style="fill:#f8ed9b;fill-rule:evenodd" />

	<path
   id="path3933"
   d="M 214.667,114.575 C 214.902,113.7 215.84,113.526 216,112.575 C 217.955,114.889 219.506,116.846 220.667,121.242 C 218.167,119.544 218.43,116.217 214.667,114.575 z "
   clip-rule="evenodd"
   style="fill:#f8ed9b;fill-rule:evenodd" />

	<path
   id="path3935"
   d="M 212.667,121.908 C 211.172,131.54 212.698,136.036 220.667,139.908 C 213.395,142.173 207.736,126.806 212.667,121.908 z "
   clip-rule="evenodd"
   style="fill:#f8ed9b;fill-rule:evenodd" />

	<path
   id="path3937"
   d="M 220.667,131.908 C 220.902,127.703 221.244,126.584 220.667,122.575 C 225.124,126.588 225.473,134.855 226.667,137.242 C 224.301,136.59 224.91,133.204 220.667,131.908 z "
   clip-rule="evenodd"
   style="fill:#f8ed9b;fill-rule:evenodd" />

	<path
   id="path3939"
   d="M 45.333,143.241 C 43.95,152.064 46.364,156.707 40,164.574 C 39.407,164.164 38.808,163.768 38.667,164.574 C 36.649,162.141 40.68,161.039 40,155.241 C 42.447,155.895 42.423,149.389 42.667,147.908 C 44.908,147.705 44.495,144.847 45.333,143.241 z "
   clip-rule="evenodd"
   style="fill:#f8ed9b;fill-rule:evenodd" />

	<path
   id="path3941"
   d="M 52.667,148.575 C 52.485,151.52 51.731,154.187 51.334,156.575 C 51.098,157.62 50.16,155.991 50.001,157.242 C 48.376,157.045 51.089,148.655 47.334,148.575 C 48.298,146.399 48.823,146.897 51.334,147.242 C 50.099,149.486 51.505,147.319 52.667,148.575 z "
   clip-rule="evenodd"
   style="fill:#f8ed9b;fill-rule:evenodd" />

	<path
   id="path3943"
   d="M 224,148.575 C 219.739,154.163 220.73,165.284 228.667,167.242 C 224.733,170.93 221.868,161.025 221.333,161.909 C 220.514,157.291 218.558,149.504 224,148.575 z "
   clip-rule="evenodd"
   style="fill:#f8ed9b;fill-rule:evenodd" />

	<path
   id="path3945"
   d="M 229.333,149.241 C 233.019,151.245 232.15,161.241 234,167.241 C 229.74,163.642 226.827,154.551 229.333,149.241 z "
   clip-rule="evenodd"
   style="fill:#f8ed9b;fill-rule:evenodd" />

	<path
   id="path3947"
   d="M 36,169.241 C 36.161,168.068 37.147,167.721 38.667,167.908 C 36.189,169.722 36.8,171.285 35.334,173.241 C 34.008,172.79 35.993,171.026 34.667,170.574 C 34.476,169.824 37.806,170.617 36,169.241 z "
   clip-rule="evenodd"
   style="fill:#f8ed9b;fill-rule:evenodd" />

	<path
   id="path3949"
   d="M 61.333,169.908 C 62.477,174.551 59.848,178.537 59.333,181.241 C 57.736,189.62 57.166,197.664 54,206.574 C 53.333,206.574 52.667,206.574 52,206.574 C 54.246,209.96 49.607,209.213 47.333,208.574 C 48.171,206.143 47.863,202.966 50.666,200.574 C 53.253,198.368 56.137,182.64 56.666,181.241 C 58.629,176.055 58.467,172.865 61.333,169.908 z "
   clip-rule="evenodd"
   style="fill:#f8ed9b;fill-rule:evenodd" />

	<path
   id="path3951"
   d="M 42.667,172.575 C 45.936,174.558 44.698,188.428 42,189.908 C 39.939,191.665 38.678,190.101 37.333,192.575 C 35.38,189.925 39.692,187.845 42,187.242 C 39.775,182.884 46.33,177.068 40,173.242 C 40.181,170.904 42.952,174.445 42.667,172.575 z "
   clip-rule="evenodd"
   style="fill:#f8ed9b;fill-rule:evenodd" />

	<path
   id="path3953"
   d="M 33.333,174.575 C 33.568,173.53 34.506,175.158 34.666,173.908 C 34.365,177.982 37.433,184.939 31.999,187.908 C 31.765,192.877 29.701,192.926 29.999,195.908 C 26.66,192.619 32.124,185.709 29.999,183.241 C 32.429,180.309 34.819,176.445 33.333,174.575 z "
   clip-rule="evenodd"
   style="fill:#f8ed9b;fill-rule:evenodd" />

	<path
   id="path3955"
   d="M 209.333,190.575 C 210.61,189.911 211.571,194.259 212,195.242 C 213.71,199.158 217.246,203.103 215.333,207.909 C 207.803,205.834 210.843,196.413 209.333,190.575 z "
   clip-rule="evenodd"
   style="fill:#f8ed9b;fill-rule:evenodd" />

	<path
   id="path3957"
   d="M 30,199.908 C 27.245,205.67 27.33,214.759 29.333,219.241 C 25.162,221.094 30.224,230.92 25.333,230.574 C 25.797,223.335 25.413,216.618 26.666,209.241 C 27.089,206.751 24.99,200.133 30.666,198.574 C 30.256,199.168 29.86,199.766 30.666,199.908 C 30.54,200.665 29.998,200.278 30,199.908 z "
   clip-rule="evenodd"
   style="fill:#f8ed9b;fill-rule:evenodd" />

	<path
   id="path3959"
   d="M 230,212.574 C 229.893,211.793 228.784,212.012 228,211.908 C 229.534,209.405 231.896,207.388 235.333,208.574 C 233.026,209.601 231.556,211.464 230,213.241 C 229.243,213.114 229.63,212.572 230,212.574 z "
   clip-rule="evenodd"
   style="fill:#f8ed9b;fill-rule:evenodd" />

	<path
   id="path3961"
   d="M 240,211.908 C 243.031,213.481 240.896,223.077 241.333,228.574 C 238.676,227.203 241.206,223.548 238,221.241 C 238.441,219.031 239.928,218.349 238.667,217.241 C 238.962,216.272 239.252,217.308 240,217.241 C 238.807,214.883 240.915,213.093 240,211.908 z "
   clip-rule="evenodd"
   style="fill:#f8ed9b;fill-rule:evenodd" />

	<path
   id="path3963"
   d="M 226.667,227.908 C 227.993,224.624 225.615,222.525 228,219.241 C 228.802,220.49 228.802,222.659 228,223.908 C 230.014,228.109 234.87,227.98 235.333,231.241 C 233.217,233.197 230.348,228.347 226.667,227.908 z "
   clip-rule="evenodd"
   style="fill:#f8ed9b;fill-rule:evenodd" />

	<path
   id="path3965"
   d="M 208.667,226.574 C 208.62,229.486 206.117,224.756 202.667,225.241 C 204.773,222.514 207.295,226.7 210,225.241 C 211.088,228.698 213.634,227.704 216,230.574 C 214.39,233.125 210.727,227.843 208.667,226.574 z "
   clip-rule="evenodd"
   style="fill:#f8ed9b;fill-rule:evenodd" />

	<path
   id="path3967"
   d="M 34.667,268.574 C 35.33,269.083 35.812,271.734 32.667,271.241 C 28.037,264.138 26.939,245.239 25.334,235.908 C 26.255,234.829 27.693,234.266 27.334,231.908 C 27.927,232.317 28.526,232.714 28.667,231.908 C 29.244,237.37 27.097,240.948 30,248.574 C 35.92,251.17 29.511,265.64 34,269.241 C 34.567,269.364 34.629,268.981 34.667,268.574 z "
   clip-rule="evenodd"
   style="fill:#f8ed9b;fill-rule:evenodd" />

	<path
   id="path3969"
   d="M 41.333,264.574 C 40.513,263.83 39.964,263.994 40,265.241 C 35.041,265.664 37.347,263.995 34.667,263.908 C 35.881,262.011 38.563,261.582 40,259.908 C 37.361,248.139 41.825,243.139 32.667,239.908 C 31.222,240.02 32.365,237.543 32,236.574 C 37.532,234.497 38.771,238.093 40,241.241 C 40.708,243.053 41.312,243.86 41.333,243.241 C 41.127,249.212 43.328,256.982 41.333,264.574 z "
   clip-rule="evenodd"
   style="fill:#f8ed9b;fill-rule:evenodd" />

	<path
   id="path3971"
   d="M 238,239.908 C 238.594,240.317 239.192,240.714 239.333,239.908 C 241.365,240.722 238.358,242.452 240,243.241 C 241.653,244.443 236.972,242.324 238,239.908 z "
   clip-rule="evenodd"
   style="fill:#f8ed9b;fill-rule:evenodd" />

	<path
   id="path3973"
   d="M 166,244.574 C 164.862,245.214 164.539,246.669 164,247.908 C 166.543,250.792 165.354,250.812 166,255.241 C 164.483,257.764 166.614,251.148 164,252.574 C 164.612,249.118 161.432,245.815 158.667,245.241 C 160.629,242.574 163.088,246.137 164,243.241 C 164.594,243.651 165.192,244.047 165.333,243.241 C 166.378,243.477 164.75,244.415 166,244.574 z "
   clip-rule="evenodd"
   style="fill:#f8ed9b;fill-rule:evenodd" />

	<path
   id="path3975"
   d="M 224,247.241 C 227.722,243.66 230.207,244.465 235.333,245.908 C 234.423,248.862 232.476,247.056 230.667,245.908 C 226.4,247.428 224.206,251.303 226.667,254.574 C 222.527,256.484 225.403,265.105 228.667,267.241 C 219.659,265.788 223.596,257.741 224,247.241 z "
   clip-rule="evenodd"
   style="fill:#f8ed9b;fill-rule:evenodd" />

	<path
   id="path3977"
   d="M 236.667,269.241 C 236.073,268.831 235.475,268.435 235.333,269.241 C 236.393,262.202 234.67,256.727 238,249.908 C 242.377,253.261 235.652,264.594 236.667,269.241 z "
   clip-rule="evenodd"
   style="fill:#f8ed9b;fill-rule:evenodd" />

	<path
   id="path3979"
   d="M 234.667,269.908 C 235.992,270.359 234.008,272.123 235.333,272.574 C 233.978,274.13 232.507,275.967 231.333,275.908 C 230.767,276.03 230.704,275.647 230.667,275.241 C 230.667,274.797 230.667,274.352 230.667,273.908 C 231.233,273.785 231.296,274.168 231.333,274.574 C 232.09,274.448 231.703,273.906 231.333,273.908 C 232.635,271.793 235.041,272.266 234.667,269.908 z "
   clip-rule="evenodd"
   style="fill:#f8ed9b;fill-rule:evenodd" />

	<path
   id="path3981"
   d="M 42.667,284.574 C 48.95,283.615 48.071,289.485 49.334,293.241 C 49.84,294.748 54.599,297.474 52.667,299.241 C 48.715,298.942 47.913,295.303 44.667,291.241 C 42.385,288.386 33.524,278.117 35.334,271.908 C 35.927,272.426 36.839,272.625 38.001,272.574 C 35.997,277.551 43.095,280.552 42.667,284.574 z "
   clip-rule="evenodd"
   style="fill:#f8ed9b;fill-rule:evenodd" />

	<path
   id="path3983"
   d="M 104.667,299.908 C 105.601,299.672 104.725,298.734 104,298.574 C 106.196,290.651 117.781,279.248 104,274.574 C 106.928,272.113 112.513,278.358 117.333,279.908 C 114.242,279.146 114.342,282.417 112,283.241 C 108.616,292.196 106.538,300.484 101.333,306.574 C 102.835,303.099 102.164,300.36 104.666,300.574 C 103.867,299.81 104.407,298.885 104.667,299.908 z "
   clip-rule="evenodd"
   style="fill:#f8ed9b;fill-rule:evenodd" />

	<path
   id="path3985"
   d="M 223.333,280.574 C 222.268,280.869 219.571,277.203 219.333,275.908 C 218.223,275.908 217.111,275.908 216,275.908 C 213.976,278.885 210.93,279.236 211.333,283.241 C 206.614,280.101 213.805,275.648 216,273.241 C 219.871,274.015 224.054,279.14 223.333,280.574 z "
   clip-rule="evenodd"
   style="fill:#f8ed9b;fill-rule:evenodd" />

	<path
   id="path3987"
   d="M 228.667,285.241 C 224.421,286.543 224.587,294.529 218.667,297.241 C 219.625,298.414 219.278,298.761 217.333,298.574 C 217.901,301.171 211.817,307.729 209.333,305.241 C 213.334,300.102 216.658,300.612 216,292.574 C 218.404,291.256 220.751,290.217 222,290.574 C 226.808,286.708 226.647,283.134 228.667,277.908 C 232.591,282.11 227.035,281.16 228.667,285.241 z "
   clip-rule="evenodd"
   style="fill:#f8ed9b;fill-rule:evenodd" />

	<path
   id="path3989"
   d="M 208,297.241 C 209.07,294.446 207.218,292.449 206.667,288.574 C 207.333,288.574 208,288.574 208.667,288.574 C 208.538,290.883 210.906,295.386 211.333,297.908 C 210.725,299.721 210.094,296.132 208,297.241 z "
   clip-rule="evenodd"
   style="fill:#f8ed9b;fill-rule:evenodd" />

	<path
   id="path3991"
   d="M 68.667,291.908 C 68.043,293.322 64.186,294.93 65.334,295.908 C 65.098,296.953 64.16,295.324 64.001,296.574 C 63.022,290.81 68.332,289.627 74.668,291.241 C 74.56,292.016 74.815,292.428 75.335,292.574 C 74.02,295.678 71.6,291.293 68.667,291.908 z "
   clip-rule="evenodd"
   style="fill:#f8ed9b;fill-rule:evenodd" />

	<path
   id="path3993"
   d="M 72.667,303.908 C 75.421,307.304 78.103,296.238 75.334,293.241 C 80.337,295.736 78.503,299.413 79.334,301.908 C 77.11,302.716 76.337,308.515 71.334,305.908 C 71.569,305.032 72.507,304.859 72.667,303.908 z "
   clip-rule="evenodd"
   style="fill:#f8ed9b;fill-rule:evenodd" />

	<path
   id="path3995"
   d="M 54.667,303.241 C 53.184,302.961 54.145,299.704 54.667,299.241 C 58.036,305.017 64.12,306.9 66,312.574 C 62.791,311.994 57.536,304.162 54.667,303.241 z "
   clip-rule="evenodd"
   style="fill:#f8ed9b;fill-rule:evenodd" />

	<path
   id="path3997"
   d="M 197.333,299.908 C 197.501,298.75 200.865,300.098 201.333,299.241 C 200.629,301.374 205.457,304.313 201.333,305.241 C 202.672,301.985 199.308,300.757 197.333,299.908 z "
   clip-rule="evenodd"
   style="fill:#f8ed9b;fill-rule:evenodd" />

	<path
   id="path3999"
   d="M 88.667,310.574 C 90.075,309.982 90.638,308.545 92.667,308.574 C 92.962,309.168 93.252,309.766 94,309.908 C 91.898,311.705 92.144,316.156 88.667,315.241 C 90.21,313.76 88.44,312.642 88.667,310.574 z "
   clip-rule="evenodd"
   style="fill:#f8ed9b;fill-rule:evenodd" />

	<path
   id="path4001"
   d="M 193.333,313.908 C 197.426,313.796 200.167,311.567 205.333,309.908 C 202.057,315.072 194.358,318.645 188.667,321.241 C 187.972,319.19 194.045,318.191 193.333,313.908 z "
   clip-rule="evenodd"
   style="fill:#f8ed9b;fill-rule:evenodd" />

	<path
   id="path4003"
   d="M 112,313.241 C 112.603,312.491 113.491,313.283 114.667,311.908 C 117.766,313.044 120.838,317.72 124,316.574 C 124.949,317.389 125.515,319.119 124.667,319.908 C 119.542,317.02 111.329,313.403 111.334,320.574 C 110.882,321.9 109.119,319.915 108.667,321.241 C 107.191,320.569 110.31,318.946 109.334,316.574 C 111.656,317.289 112.583,313.229 112,313.241 z "
   clip-rule="evenodd"
   style="fill:#f8ed9b;fill-rule:evenodd" />

	<path
   id="path4005"
   d="M 165.333,312.574 C 166.383,312.782 164.73,316.678 166.667,315.241 C 167.492,316.793 166.754,319.387 165.333,319.908 C 165.211,320.474 165.594,320.537 166,320.574 C 163.283,321.16 163.981,315.364 164,312.574 C 164.594,312.984 165.192,313.38 165.333,312.574 z "
   clip-rule="evenodd"
   style="fill:#f8ed9b;fill-rule:evenodd" />

	<path
   id="path4007"
   d="M 159.333,313.241 C 159.868,316.103 159.9,319.979 158,323.908 C 157.233,321.843 157.592,312.951 159.333,313.241 z "
   clip-rule="evenodd"
   style="fill:#f8ed9b;fill-rule:evenodd" />

	<path
   id="path4009"
   d="M 100.667,326.574 C 97.062,330.7 88.831,324.55 84,325.241 C 84,324.574 84,323.908 84,323.241 C 81.885,324.65 79.127,322.287 76.667,320.574 C 87.284,317.864 89.9,328.355 100.667,326.574 z "
   clip-rule="evenodd"
   style="fill:#f8ed9b;fill-rule:evenodd" />

	<path
   id="path4011"
   d="M 179.333,323.241 C 182.943,325.328 171.297,328.55 172.667,328.574 C 171.722,330.518 166.047,327.732 166,330.574 C 166.199,327.901 162.462,332.589 158,331.241 C 164.732,326.009 166.433,325.192 177.333,325.908 C 178.073,323.622 178.996,325.197 179.333,323.241 z "
   clip-rule="evenodd"
   style="fill:#f8ed9b;fill-rule:evenodd" />

	<path
   id="path4013"
   d="M 127.333,331.241 C 127.137,332.6 125.529,332.549 125.333,333.908 C 113.759,332.66 112.623,332.486 104.666,330.574 C 104.094,326.614 106.746,330.05 107.999,329.908 C 110.829,329.587 114.819,327.032 117.332,327.241 C 120.924,327.54 122.877,332.037 127.333,331.241 z "
   clip-rule="evenodd"
   style="fill:#f8ed9b;fill-rule:evenodd" />

	<path
   id="path4015"
   d="M 153.333,329.908 C 153.333,330.797 153.333,331.685 153.333,332.574 C 145.592,334.176 140.077,336.722 132,333.241 C 139.61,325.316 146.029,336.307 153.333,329.908 z "
   clip-rule="evenodd"
   style="fill:#f8ed9b;fill-rule:evenodd" />

	<path
   id="path4017"
   d="M 52,333.908 C 53.045,334.143 51.417,335.081 52.667,335.241 C 48.855,336.068 44.08,338.38 40,339.908 C 42.291,334.568 49.066,337.363 52,333.908 z "
   clip-rule="evenodd"
   style="fill:#f8ed9b;fill-rule:evenodd" />

	<path
   id="path4019"
   d="M 48,351.241 C 47.407,350.831 46.808,350.435 46.667,351.241 C 44.262,347.325 50.177,349.856 49.334,345.908 C 51.845,345.784 52.37,344.712 53.334,344.574 C 53.696,346.292 47.645,347.313 48,351.241 z "
   clip-rule="evenodd"
   style="fill:#f8ed9b;fill-rule:evenodd" />

	<path
   id="path4021"
   d="M 64.667,347.241 C 64.158,349.177 61.507,348.97 62,351.908 C 61.125,351.673 60.952,350.734 60,350.574 C 62.442,350.35 61.368,346.609 64.667,347.241 z "
   clip-rule="evenodd"
   style="fill:#f8ed9b;fill-rule:evenodd" />

</g>
    <path
       style="fill:none;fill-rule:evenodd;stroke:#f70000;stroke-width:1.79999995;stroke-linecap:butt;stroke-linejoin:miter;stroke-miterlimit:4;stroke-dasharray:none;stroke-opacity:1"
       d="M 446.42857,205.21932 L 446.42857,136.6479"
       id="path4137" />
    <path
       style="fill:none;fill-rule:evenodd;stroke:#f70000;stroke-width:1.79999995;stroke-linecap:butt;stroke-linejoin:miter;stroke-miterlimit:4;stroke-dasharray:none;stroke-opacity:1"
       d="M 446.42857,204.50504 L 484.28571,145.93361"
       id="path4139" />
    <path
       sodipodi:type="arc"
       style="opacity:1;fill:none;fill-opacity:1;fill-rule:nonzero;stroke:#f70000;stroke-width:1.79999995;stroke-linecap:butt;stroke-linejoin:miter;stroke-miterlimit:4;stroke-dasharray:none;stroke-dashoffset:0;stroke-opacity:1"
       id="path5127"
       sodipodi:cx="96.071426"
       sodipodi:cy="162.71933"
       sodipodi:rx="25.357143"
       sodipodi:ry="21.785715"
       d="M 92.017296,141.21386 A 25.357143,21.785715 0 0 1 120.13221,155.84269"
       sodipodi:start="4.5518187"
       sodipodi:end="5.9620447"
       sodipodi:open="true"
       transform="matrix(1,-9.8133306e-2,0,1,354.28571,16.838039)" />
    <text
       xml:space="preserve"
       style="font-size:12px;font-style:normal;font-weight:normal;fill:#000000;fill-opacity:1;stroke:none;stroke-width:1px;stroke-linecap:butt;stroke-linejoin:miter;stroke-opacity:1;font-family:Bitstream Vera Sans"
       x="459.28571"
       y="137.36218"
       id="text5129"><tspan
         sodipodi:role="line"
         id="tspan5131"
         x="459.28571"
         y="137.36218"
         style="font-size:16px;fill:#ff0000">30</tspan></text>
  </g>
</svg>
